<?xml version="1.0" standalone="no"?>
<!DOCTYPE svg PUBLIC "-//W3C//DTD SVG 20010904//EN"
 "http://www.w3.org/TR/2001/REC-SVG-20010904/DTD/svg10.dtd">
<svg version="1.0" xmlns="http://www.w3.org/2000/svg"
 width="1920.000000pt" height="1200.000000pt" viewBox="0 0 1920.000000 1200.000000"
 preserveAspectRatio="xMidYMid meet">

<g transform="translate(0.000000,1200.000000) scale(0.100000,-0.100000)"
fill="#000000" stroke="none">
<path d="M0 6000 l0 -6000 9600 0 9600 0 0 6000 0 6000 -9600 0 -9600 0 0
-6000z m9890 4661 c211 -47 317 -88 428 -164 110 -75 175 -138 238 -231 175
-253 263 -506 304 -876 16 -144 41 -232 96 -340 20 -38 22 -51 14 -85 -5 -22
-16 -74 -25 -115 -16 -73 -64 -210 -73 -210 -2 0 -1 15 2 34 6 31 5 34 -14 29
-11 -3 -23 -9 -26 -14 -7 -12 -74 -11 -74 0 0 6 5 13 10 16 10 6 15 55 5 55
-2 0 -21 -11 -42 -25 -34 -24 -88 -31 -88 -13 0 4 51 59 114 123 63 63 111
118 107 122 -14 14 -83 3 -239 -37 -87 -22 -160 -40 -162 -40 -2 0 1 14 7 30
14 41 5 64 -21 50 -11 -5 -25 -16 -33 -23 -26 -25 -69 -48 -78 -42 -20 12 -9
23 53 50 34 16 107 49 162 75 55 26 122 55 150 66 45 17 47 19 25 25 -14 4
-20 8 -15 8 6 1 3 6 -5 12 -12 8 -11 9 6 4 15 -4 24 0 28 11 5 13 2 15 -21 9
-16 -4 -32 -8 -38 -9 -50 -13 -64 -19 -58 -30 4 -6 -1 -5 -11 3 -20 17 -6 31
31 31 12 0 25 5 28 10 3 6 15 10 26 10 10 0 19 5 19 11 0 7 -7 8 -17 4 -33
-13 -208 -54 -278 -65 -47 -8 -71 -8 -73 -1 -2 6 -13 4 -28 -5 -26 -18 -31 -8
-10 21 8 11 19 16 30 12 9 -4 15 -3 12 1 -8 14 64 43 87 36 16 -5 19 -3 14 10
-4 10 -3 15 2 11 5 -3 16 1 23 9 23 23 109 56 144 56 19 0 34 5 34 10 0 13 0
12 -147 10 -120 -2 -147 6 -107 28 24 13 -184 14 -209 1 -16 -9 -18 -8 -15 8
2 10 11 17 21 17 9 -1 14 2 11 7 -3 5 2 9 10 9 9 0 16 3 16 8 0 4 23 17 50 30
40 18 50 28 50 47 0 17 6 25 18 26 15 0 15 1 -2 8 -20 8 18 27 166 86 38 15
65 31 62 37 -3 5 -13 6 -23 3 -52 -22 -141 -53 -141 -49 0 2 14 19 31 39 31
35 29 39 -20 35 -13 -1 -21 2 -17 8 3 5 -6 24 -19 42 -14 19 -25 42 -25 52 0
29 -21 56 -40 51 -10 -3 -20 2 -23 11 -4 9 -2 16 3 16 19 0 9 18 -37 68 -27
28 -58 65 -71 82 -28 36 -42 38 -43 8 0 -22 -1 -22 -8 -3 -5 11 -4 22 1 23 14
6 -85 92 -99 87 -7 -2 -13 2 -13 10 0 8 -3 15 -7 16 -33 3 -58 11 -64 21 -4 6
-24 12 -45 14 -68 6 -113 12 -121 17 -5 3 -40 6 -78 8 -65 2 -70 1 -68 -18 2
-20 0 -20 -34 -10 -28 9 -37 9 -41 -1 -6 -20 -22 -14 -22 9 0 11 -4 17 -10 14
-5 -3 -10 -1 -10 5 0 6 -5 8 -12 4 -9 -6 -9 -9 0 -12 7 -2 12 -8 12 -14 0 -6
-7 -8 -15 -4 -8 3 -15 1 -15 -4 0 -6 4 -10 10 -10 26 0 -6 -27 -43 -37 -23 -7
-50 -15 -60 -18 -13 -5 -16 -3 -11 8 8 23 -15 31 -35 13 -17 -15 -20 -15 -34
-1 -19 19 -41 20 -34 1 6 -15 -19 -30 -34 -20 -5 3 -9 0 -9 -7 0 -6 8 -9 20
-6 27 7 25 -4 -5 -25 -23 -17 -24 -17 -30 2 -9 29 -22 25 -49 -19 -28 -43 -44
-58 -43 -38 1 31 -4 48 -12 43 -5 -4 -7 -20 -5 -36 4 -24 2 -29 -10 -24 -22 8
-20 -12 2 -26 15 -10 15 -10 -4 -5 -11 3 -29 -1 -39 -9 -17 -12 -21 -12 -30 0
-9 13 -14 12 -33 -6 -24 -22 -30 -54 -9 -48 6 3 13 14 15 26 4 26 17 29 26 6
3 -9 11 -12 18 -8 10 6 11 4 1 -7 -7 -7 -13 -21 -13 -30 0 -11 -8 -16 -25 -16
-14 0 -25 3 -25 8 0 17 -29 9 -44 -13 -25 -36 -20 -47 21 -45 29 2 38 -2 41
-16 3 -15 0 -18 -16 -13 -23 8 -54 -18 -46 -38 3 -8 -4 -16 -20 -20 -14 -3
-26 -11 -26 -16 0 -5 7 -7 15 -4 8 4 15 2 15 -4 0 -17 -28 -22 -40 -7 -8 10
-8 21 4 43 9 17 21 32 28 34 6 2 8 10 4 16 -11 18 -23 6 -46 -45 -22 -50 -25
-67 -10 -58 15 9 12 -4 -5 -21 -8 -9 -15 -12 -15 -8 0 3 -7 1 -15 -6 -19 -16
-20 -34 -1 -27 10 4 13 1 9 -10 -3 -8 0 -19 7 -23 28 -17 3 -35 -49 -34 -28 0
-51 -3 -51 -8 0 -4 -12 -8 -27 -8 -16 0 -34 -4 -42 -9 -18 -11 -5 -31 20 -31
10 0 19 -4 19 -9 0 -5 14 -14 31 -21 17 -8 39 -21 48 -30 9 -9 78 -38 153 -65
76 -26 146 -54 155 -61 16 -13 15 -13 -9 -4 -30 10 -61 4 -52 -11 3 -5 -28 -9
-70 -9 -43 0 -77 4 -77 10 -1 6 -2 14 -3 19 -2 16 -16 25 -16 10 0 -11 -23
-14 -111 -16 -61 -2 -130 -8 -153 -14 -49 -13 -96 -36 -96 -47 0 -9 81 -52 97
-52 5 0 33 -7 63 -16 41 -12 50 -18 39 -26 -11 -7 -8 -9 9 -5 12 3 48 -4 80
-15 31 -11 104 -33 162 -49 147 -41 140 -37 101 -61 -36 -23 -22 -24 -195 9
-18 4 -31 1 -37 -8 -7 -11 -10 -9 -15 7 -8 31 -84 61 -84 34 0 -5 -5 -10 -11
-10 -6 0 -9 7 -5 15 3 8 1 15 -4 15 -6 0 -10 -7 -10 -15 0 -8 -4 -15 -9 -15
-5 0 -8 8 -7 17 0 10 -3 18 -9 18 -5 0 -15 4 -22 8 -7 4 -36 9 -64 11 -46 3
-57 8 -86 40 -18 20 -35 36 -38 36 -13 0 -2 -22 35 -68 38 -47 39 -51 23 -67
-16 -17 -14 -20 35 -64 48 -42 162 -211 142 -211 -4 0 -24 11 -45 25 -20 15
-40 24 -43 21 -13 -13 -11 -65 3 -76 39 -32 -4 -54 -93 -49 -65 4 -90 -6 -94
-39 -5 -31 -9 -22 -27 53 -7 27 -18 63 -26 80 -13 30 -38 124 -56 221 -10 47
-8 55 25 127 20 42 36 80 36 85 0 5 7 15 15 22 8 7 15 21 15 31 0 10 9 26 19
36 17 16 21 38 26 163 4 80 13 168 21 197 8 28 14 64 14 79 0 67 70 262 124
344 162 248 208 296 414 428 113 72 242 133 301 143 31 5 90 15 131 23 98 19
286 13 400 -13z m-10 -541 c0 -5 -7 -10 -16 -10 -8 0 -12 5 -9 10 3 6 10 10
16 10 5 0 9 -4 9 -10z m-133 -49 c13 -22 8 -31 -19 -31 -19 0 -24 15 -8 25 6
4 8 11 5 16 -4 5 -2 9 2 9 5 0 14 -9 20 -19z m-107 -1 c0 -5 -10 -10 -22 -9
-22 0 -22 1 -3 9 11 5 21 9 23 9 1 1 2 -3 2 -9z m221 -12 c1 -7 3 -36 5 -64
l4 -52 -33 17 c-18 9 -43 27 -56 40 -26 26 -19 37 32 48 15 3 27 9 27 14 0 14
20 10 21 -3z m140 3 c-11 -7 -7 -13 18 -25 29 -15 36 -14 32 7 -2 9 39 -1 52
-13 13 -12 -4 -62 -19 -56 -8 3 -13 2 -11 -2 4 -12 -7 -14 -60 -6 -38 5 -53
11 -54 23 -5 47 -2 57 16 68 23 13 47 17 26 4z m39 -11 c0 -5 -2 -10 -4 -10
-3 0 -8 5 -11 10 -3 6 -1 10 4 10 6 0 11 -4 11 -10z m-720 -20 c-27 -21 -55
-27 -45 -9 7 11 42 27 60 28 6 0 -1 -8 -15 -19z m240 10 c0 -5 -2 -10 -4 -10
-3 0 -8 5 -11 10 -3 6 -1 10 4 10 6 0 11 -4 11 -10z m130 1 c0 -11 -75 -34
-91 -28 -8 3 -2 6 12 6 15 1 29 7 32 14 5 14 47 21 47 8z m-225 -61 c2 -29
-55 -28 -81 2 -17 19 -17 21 -1 15 9 -4 17 -2 17 3 0 12 42 18 54 8 5 -4 10
-17 11 -28z m-235 10 c0 -5 -4 -10 -10 -10 -5 0 -10 5 -10 10 0 6 5 10 10 10
6 0 10 -4 10 -10z m150 -30 c0 -5 -7 -10 -15 -10 -8 0 -15 5 -15 10 0 6 7 10
15 10 8 0 15 -4 15 -10z m790 -46 c0 -19 -46 -4 -47 15 -1 16 2 17 23 7 13 -6
24 -16 24 -22z m-463 20 c-3 -3 -12 -4 -19 -1 -8 3 -5 6 6 6 11 1 17 -2 13 -5z
m403 -8 c0 -9 -30 -14 -35 -6 -4 6 3 10 14 10 12 0 21 -2 21 -4z m-1008 -48
c-7 -7 -12 -8 -12 -2 0 14 12 26 19 19 2 -3 -1 -11 -7 -17z m1086 -10 c7 -9 5
-17 -6 -28 -14 -13 -15 -12 -10 2 4 8 1 21 -5 27 -8 8 -8 11 0 11 6 0 15 -6
21 -12z m-1138 -49 c0 -5 -4 -9 -10 -9 -5 0 -10 7 -10 16 0 8 5 12 10 9 6 -3
10 -10 10 -16z m1216 -12 c30 -34 36 -47 24 -47 -13 0 -60 49 -60 61 0 16 16
9 36 -14z m-118 4 c11 -7 11 -9 -1 -14 -16 -6 -27 0 -27 15 0 10 11 10 28 -1z
m144 -78 c2 -12 13 -17 33 -18 23 0 31 -5 33 -22 2 -12 10 -27 18 -33 23 -20
17 -26 -28 -28 -24 0 -36 2 -28 6 8 4 16 20 17 36 2 28 2 28 -18 10 -16 -15
-19 -15 -14 -2 4 11 0 18 -14 23 -12 3 -21 12 -21 20 0 7 -6 16 -12 18 -7 3
-3 6 9 6 13 1 23 -6 25 -16z m-231 -72 c1 -14 2 -14 6 2 2 9 9 17 15 17 6 0 8
-3 5 -7 -4 -3 -2 -12 3 -18 7 -9 6 -14 -4 -18 -8 -3 -20 1 -26 9 -7 8 -19 14
-26 14 -8 0 -14 4 -14 8 0 27 39 20 41 -7z m4 -42 c13 -1 9 -5 -13 -12 -27 -8
-36 -7 -43 4 -7 11 -9 11 -9 -3 0 -11 -5 -15 -15 -12 -12 5 -12 9 3 29 15 20
19 21 37 9 11 -8 29 -14 40 -15z m-105 12 c0 -5 -7 -11 -15 -15 -9 -3 -15 0
-15 9 0 8 7 15 15 15 8 0 15 -4 15 -9z m-535 -30 c-3 -12 -13 -21 -21 -21 -13
0 -13 2 0 16 9 8 16 20 16 26 0 6 3 9 6 5 3 -3 3 -15 -1 -26z m705 19 c-20
-13 -33 -13 -25 0 3 6 14 10 23 10 15 0 15 -2 2 -10z m290 -31 c0 -12 -38 -21
-60 -14 -34 11 -22 25 20 23 22 -1 40 -5 40 -9z m-360 -41 c0 -5 8 -8 18 -9
13 0 12 -2 -6 -9 -27 -11 -61 -2 -40 11 10 7 10 9 1 9 -7 0 -13 7 -13 15 0 13
3 13 20 3 11 -7 20 -16 20 -20z m80 19 c-14 -7 -25 -19 -26 -27 -1 -8 -2 -28
-3 -45 -1 -22 -4 -26 -10 -15 -6 8 -7 27 -4 42 4 21 2 28 -11 28 -16 0 -21 12
-9 23 3 4 25 7 47 7 40 0 40 -1 16 -13z m220 -4 c0 -5 -4 -13 -8 -19 -9 -14
-45 -27 -37 -14 3 6 1 10 -4 10 -6 0 -11 -7 -11 -16 0 -8 -5 -12 -11 -9 -6 4
-16 -1 -24 -11 -10 -15 -16 -16 -27 -6 -8 6 -18 9 -21 5 -4 -3 -7 6 -7 21 0
16 4 25 10 21 6 -3 10 -13 10 -21 0 -24 25 -10 28 15 3 18 9 22 28 18 13 -2
27 0 30 4 6 11 44 12 44 2z m-200 -13 c0 -5 -7 -7 -15 -4 -8 4 -15 8 -15 10 0
2 7 4 15 4 8 0 15 -4 15 -10z m-740 -10 c-11 -7 -11 -10 -2 -10 7 0 11 -4 8
-9 -3 -5 1 -14 8 -20 12 -10 13 -8 9 8 -3 13 2 23 16 31 29 15 41 5 38 -30 -2
-37 -5 -37 -19 -2 -11 26 -12 27 -16 4 -4 -24 -7 -26 -54 -36 -16 -4 -28 -13
-28 -20 0 -8 -5 -16 -12 -18 -19 -7 -1 -38 22 -38 11 0 20 -6 20 -12 0 -8 3
-9 8 -3 7 10 62 15 62 6 0 -2 -8 -10 -17 -17 -17 -12 -16 -13 5 -14 12 0 25 6
28 13 6 16 74 21 74 7 0 -6 -4 -10 -10 -10 -19 0 -10 -21 15 -32 28 -12 33
-28 10 -28 -8 0 -15 -4 -15 -8 0 -14 -85 -29 -109 -21 -22 9 -30 -6 -8 -14 7
-3 5 -6 -5 -6 -10 -1 -18 5 -18 13 0 9 -7 12 -20 9 -11 -3 -20 -1 -20 3 0 12
-52 15 -65 4 -15 -13 -52 -10 -110 7 -62 19 -186 73 -203 90 -7 7 -20 13 -29
13 -22 0 -10 23 21 40 22 13 28 13 35 1 12 -19 99 -7 116 16 12 16 29 20 98
23 15 1 16 4 7 15 -14 16 -5 36 13 30 7 -2 39 2 72 9 33 8 67 14 75 15 13 1
13 0 0 -9z m510 -15 c0 -2 -9 -9 -20 -15 -12 -6 -20 -7 -20 -1 0 5 8 12 18 14
9 3 18 5 20 6 1 0 2 -1 2 -4z m220 -19 c0 -2 -7 -6 -15 -10 -8 -3 -15 -1 -15
4 0 6 7 10 15 10 8 0 15 -2 15 -4z m30 -20 c0 -2 -7 -7 -16 -10 -8 -3 -12 -2
-9 4 6 10 25 14 25 6z m120 -26 c-12 -22 -21 -26 -17 -7 2 10 17 26 25 27 1 0
-2 -9 -8 -20z m-820 0 c0 -5 -4 -10 -10 -10 -5 0 -10 5 -10 10 0 6 5 10 10 10
6 0 10 -4 10 -10z m850 -4 c0 -3 -4 -8 -10 -11 -5 -3 -10 -1 -10 4 0 6 5 11
10 11 6 0 10 -2 10 -4z m-862 -35 c3 -8 -1 -12 -9 -9 -7 2 -15 10 -17 17 -3 8
1 12 9 9 7 -2 15 -10 17 -17z m562 -31 c0 -5 -8 -10 -17 -10 -15 0 -16 2 -3
10 19 12 20 12 20 0z m81 -63 c-13 -13 -15 1 -4 30 7 17 8 17 11 -1 2 -10 -1
-23 -7 -29z m49 1 c0 -5 -6 -8 -14 -8 -9 0 -12 7 -9 21 4 16 8 17 14 7 5 -7 9
-16 9 -20z m-293 -10 c-3 -8 -6 -5 -6 6 -1 11 2 17 5 13 3 -3 4 -12 1 -19z
m160 0 c-3 -8 -6 -5 -6 6 -1 11 2 17 5 13 3 -3 4 -12 1 -19z m-327 -8 c0 -5
-5 -10 -11 -10 -5 0 -7 5 -4 10 3 6 8 10 11 10 2 0 4 -4 4 -10z m677 4 c-3 -3
-12 -4 -19 -1 -8 3 -5 6 6 6 11 1 17 -2 13 -5z m-510 -96 c-3 -7 -5 -2 -5 12
0 14 2 19 5 13 2 -7 2 -19 0 -25z m112 -89 c5 7 22 14 39 16 28 4 31 1 30 -20
-1 -14 -8 -25 -15 -25 -19 0 -16 -18 5 -22 14 -3 13 -5 -6 -10 -13 -4 -28 -1
-34 6 -7 7 -22 11 -34 8 -19 -3 -22 -1 -17 19 10 46 16 56 21 35 3 -13 6 -15
11 -7z m-914 1 c-3 -5 -13 -10 -21 -10 -8 0 -14 -7 -14 -15 0 -16 -23 -18 -55
-5 -18 7 -17 9 10 16 17 5 33 8 37 9 3 0 10 3 14 8 11 11 36 9 29 -3z m-262
-105 c-7 -21 -13 -19 -13 6 0 11 4 18 10 14 5 -3 7 -12 3 -20z m2014 -92 c-23
-23 -29 -26 -37 -13 -9 15 7 33 21 24 4 -2 10 0 14 6 3 5 11 10 18 10 6 0 -1
-12 -16 -27z m-66 -66 c-10 -9 -11 -8 -5 6 3 10 9 15 12 12 3 -3 0 -11 -7 -18z
m-1925 -212 c8 -8 22 -19 31 -24 15 -8 14 -12 -5 -36 -12 -15 -23 -25 -23 -21
-1 6 -4 18 -8 34 -2 4 -6 -2 -11 -13 -9 -19 -9 -19 -16 3 -7 24 -20 29 -27 10
-3 -7 -6 -3 -6 9 -1 12 9 29 21 37 27 19 26 19 44 1z m1776 -39 c29 -14 68
-30 86 -36 35 -14 36 -17 22 -54 -8 -22 -13 -24 -44 -19 -19 3 -55 -1 -82 -10
-27 -8 -66 -18 -86 -22 -21 -3 -38 -10 -38 -14 0 -5 -12 -8 -27 -8 -15 0 -29
-6 -31 -12 -2 -6 -11 -11 -21 -11 -9 0 -22 -5 -29 -12 -19 -19 -26 -1 -11 30
13 27 186 192 201 192 4 0 31 -11 60 -24z m-192 -36 c0 -5 -8 -10 -17 -10 -15
0 -16 2 -3 10 19 12 20 12 20 0z m-1810 -10 c0 -5 -4 -10 -9 -10 -6 0 -13 5
-16 10 -3 6 1 10 9 10 9 0 16 -4 16 -10z m1765 -20 c1 -11 -4 -25 -12 -31 -9
-8 -13 -8 -13 0 0 6 4 11 9 11 4 0 6 12 3 28 -2 15 -1 24 4 19 4 -4 8 -16 9
-27z m478 -27 c-18 -117 -97 -319 -138 -353 -9 -8 -21 -25 -26 -38 -11 -28
-170 -262 -238 -350 -48 -62 -71 -70 -51 -17 5 14 21 41 35 59 29 38 31 46 10
46 -8 0 -15 3 -15 6 0 8 33 51 114 147 39 45 76 89 84 99 7 9 15 23 16 32 1 9
11 23 22 31 13 10 15 17 8 22 -6 5 -15 28 -19 51 -6 38 -4 47 18 70 13 15 35
43 48 62 25 37 131 170 135 170 2 0 0 -17 -3 -37z m-2276 -63 c8 -8 27 -34 44
-58 30 -42 30 -44 18 -97 -13 -59 -6 -82 16 -52 8 11 14 14 17 6 2 -7 9 -5 18
7 12 14 12 16 1 10 -9 -6 -12 -5 -9 4 5 15 30 27 27 13 -4 -21 2 -34 12 -27 8
4 9 0 4 -15 -4 -13 0 -27 12 -40 12 -13 18 -34 18 -56 -1 -25 2 -34 11 -31 8
3 11 0 7 -10 -11 -30 -41 -10 -149 99 -121 122 -123 126 -126 245 -1 39 -5 72
-10 72 -4 0 -8 5 -8 12 0 11 61 -41 97 -82z m1723 5 c-7 -9 -15 -13 -19 -10
-3 3 1 10 9 15 21 14 24 12 10 -5z m-1535 -252 l18 -28 -21 19 c-12 11 -22 23
-22 28 0 14 7 9 25 -19z m1863 -30 c-5 -7 -25 -21 -44 -32 -30 -18 -35 -19
-41 -5 -3 9 5 27 21 43 24 25 30 27 51 17 17 -8 21 -14 13 -23z m-1848 -23 c0
-5 -4 -10 -10 -10 -5 0 -10 5 -10 10 0 6 5 10 10 10 6 0 10 -4 10 -10z m-74
-185 c59 -99 163 -252 221 -325 24 -30 55 -68 68 -85 13 -16 22 -32 19 -35 -3
-2 -9 1 -13 9 -5 7 -11 12 -15 12 -3 -1 -10 -1 -15 -1 -4 0 -23 28 -41 62 -43
80 -98 140 -146 157 -50 18 -59 29 -85 93 -11 29 -25 58 -30 64 -4 6 -15 40
-24 77 -8 36 -18 74 -21 84 -10 31 31 -25 82 -112z m-71 -22 c16 -69 36 -133
44 -140 8 -9 10 -17 5 -21 -27 -19 -56 -74 -50 -97 5 -18 0 -28 -22 -44 -25
-17 -59 -90 -54 -113 1 -5 -6 -8 -15 -8 -16 -1 -16 -2 2 -16 11 -8 19 -24 17
-34 -2 -11 2 -20 7 -20 6 0 11 -5 11 -11 0 -6 -7 -9 -15 -6 -8 4 -17 1 -21 -5
-5 -7 -2 -8 6 -3 24 15 0 -39 -31 -67 -19 -18 -27 -33 -23 -45 5 -15 4 -16 -5
-3 -6 8 -11 11 -11 5 0 -5 -7 1 -14 14 -14 26 -11 55 5 45 5 -3 9 -1 9 4 0 5
-9 12 -20 15 -11 3 -20 10 -20 15 0 14 53 22 66 11 18 -15 26 32 9 51 -8 9
-15 23 -14 31 0 8 4 6 9 -6 8 -19 9 -19 9 3 1 26 -14 29 -28 5 -6 -10 -11 -14
-11 -9 0 5 -7 2 -17 -5 -15 -13 -16 -11 -9 14 4 19 3 26 -6 25 -25 -6 -49 -36
-63 -79 l-14 -44 5 40 c7 48 76 259 111 334 20 45 78 204 100 274 3 9 8 17 12
17 4 0 20 -57 36 -127z m188 86 c4 -16 3 -18 -9 -8 -16 13 -19 29 -5 29 5 0
11 -9 14 -21z m1882 -69 c9 -17 20 -49 25 -73 9 -43 46 -155 120 -357 52 -145
70 -201 70 -220 -1 -9 -5 -7 -13 8 -10 18 -15 20 -26 10 -11 -11 -13 -9 -8 10
5 21 3 23 -19 18 -17 -5 -29 -1 -41 13 -9 11 -20 18 -24 15 -5 -2 -25 12 -45
32 -21 20 -48 40 -60 44 -16 7 -24 20 -29 52 -4 24 -13 53 -21 65 -8 12 -12
39 -10 63 3 33 -1 44 -20 59 -41 32 -33 84 28 196 29 52 54 95 55 95 1 0 9
-14 18 -30z m-1726 -26 c-7 -9 -8 -14 -1 -14 6 0 10 -9 9 -19 -1 -18 -2 -18
-23 -3 -19 15 -20 19 -7 39 9 13 19 20 25 17 5 -3 4 -12 -3 -20z m36 -14 c3
-5 1 -10 -4 -10 -6 0 -11 5 -11 10 0 6 2 10 4 10 3 0 8 -4 11 -10z m29 -36 c3
-8 2 -12 -4 -9 -6 3 -10 10 -10 16 0 14 7 11 14 -7z m-14 -24 c0 -5 -2 -10 -4
-10 -3 0 -8 5 -11 10 -3 6 -1 10 4 10 6 0 11 -4 11 -10z m-554 -32 c-16 -25
-126 -353 -126 -375 0 -34 -64 -203 -77 -203 -10 0 -12 -6 -8 -21 7 -19 -13
-85 -22 -75 -3 2 1 14 7 26 6 12 8 29 5 38 -6 13 -10 9 -20 -18 -8 -19 -14
-29 -14 -22 -1 7 -6 10 -12 6 -6 -3 -8 -16 -5 -29 5 -18 1 -24 -17 -29 -18 -5
-20 -8 -7 -16 13 -8 12 -10 -2 -10 -10 0 -18 -4 -18 -10 0 -5 -5 -10 -10 -10
-6 0 -8 11 -4 25 7 26 1 29 -31 15 l-20 -9 20 0 c17 -1 18 -3 5 -11 -13 -9
-13 -12 2 -24 15 -11 16 -17 6 -38 -16 -34 -47 -53 -61 -39 -16 16 -28 13 -25
-6 2 -10 -3 -18 -9 -19 -7 -1 -17 -2 -22 -3 -5 0 -13 -10 -16 -22 -5 -16 -9
-18 -21 -8 -11 9 -12 14 -3 19 16 11 2 30 -17 23 -8 -3 -14 -13 -13 -22 3 -23
-21 -77 -29 -65 -17 24 -96 6 -137 -33 -11 -10 -29 -20 -40 -21 -37 -3 -160
-30 -142 -31 24 -1 22 -21 -3 -21 -13 0 -18 -5 -14 -15 7 -17 -11 -21 -21 -5
-9 15 -25 12 -25 -4 0 -9 -15 -17 -40 -21 -26 -4 -46 -16 -59 -33 -17 -24 -22
-25 -40 -14 -27 16 -32 15 -25 -3 4 -8 1 -15 -5 -15 -6 0 -11 5 -11 10 0 6 -9
10 -19 10 -11 0 -23 -4 -26 -10 -3 -5 -17 -10 -31 -10 -20 0 -24 -5 -24 -30 0
-38 -17 -40 -22 -2 l-4 27 -11 -25 c-7 -14 -12 -19 -12 -12 -1 7 -5 10 -11 7
-5 -3 -19 -1 -30 5 -19 10 -25 5 -22 -21 1 -3 -24 -2 -55 3 -58 9 -79 0 -68
-29 2 -7 -2 -10 -11 -6 -15 6 -19 19 -6 26 4 2 0 2 -8 -1 -42 -11 -61 -12 -55
-2 4 6 13 9 20 6 8 -3 19 2 25 10 10 11 9 14 -9 14 -12 0 -21 6 -21 15 0 18
-30 13 -103 -18 -37 -17 -47 -26 -45 -42 2 -11 10 -20 18 -20 8 0 16 -9 18
-20 3 -16 1 -18 -9 -7 -7 6 -21 12 -31 12 -11 0 -18 7 -18 20 0 20 -11 26 -24
13 -4 -5 -22 -9 -39 -10 -18 -2 -36 -3 -42 -4 -5 -1 -23 2 -39 6 -26 7 -28 6
-21 -14 4 -12 2 -21 -4 -21 -6 0 -11 7 -11 17 0 15 -2 15 -19 -1 -12 -11 -17
-25 -14 -34 4 -10 2 -14 -2 -10 -5 5 -17 -7 -28 -25 -11 -17 -18 -32 -16 -33
2 0 -2 -8 -9 -17 -9 -10 -11 -27 -7 -46 4 -17 3 -36 -2 -43 -4 -7 -9 -26 -9
-43 -1 -16 -5 -48 -9 -70 -4 -22 -8 -47 -9 -55 -1 -8 -7 -24 -13 -36 -7 -13
-8 -25 -2 -35 12 -19 11 -42 -1 -34 -14 9 -12 -9 3 -24 10 -10 8 -15 -7 -26
-16 -12 -17 -17 -6 -30 7 -9 9 -22 4 -32 -4 -10 -9 -40 -10 -68 -1 -27 -4 -73
-7 -101 -4 -33 -1 -60 8 -77 15 -29 19 -127 4 -127 -5 0 -9 9 -9 20 0 11 -4
20 -10 20 -14 0 -12 -43 3 -59 10 -11 10 -13 0 -7 -9 5 -13 -1 -13 -19 0 -15
4 -24 10 -20 13 8 13 -8 -1 -22 -8 -8 -8 -17 0 -31 14 -27 14 -72 0 -72 -6 0
-9 9 -6 20 3 11 1 20 -4 20 -10 0 -10 -58 0 -75 8 -15 7 -125 -1 -125 -4 0 -9
-24 -11 -52 -5 -79 -10 170 -8 497 1 410 19 692 55 865 9 41 16 87 16 102 0
27 27 51 53 46 6 -1 28 3 47 9 19 7 47 11 62 11 17 0 44 14 75 40 44 37 165
91 234 106 14 3 69 35 123 71 53 36 145 91 204 122 59 31 143 78 188 105 45
26 85 48 89 48 5 0 24 12 43 27 19 14 53 36 76 48 179 95 283 157 412 243 272
183 369 254 387 282 6 11 15 20 20 20 4 0 1 -10 -7 -22z m2439 -165 c45 -36
141 -97 258 -162 23 -13 179 -93 347 -179 168 -85 339 -176 380 -202 140 -88
318 -183 455 -240 55 -24 105 -46 110 -50 6 -4 42 -18 80 -31 39 -13 76 -31
83 -41 7 -10 25 -18 40 -18 32 0 87 -31 100 -57 14 -26 29 -109 48 -263 9 -74
22 -157 30 -185 20 -74 44 -246 44 -317 0 -35 7 -103 16 -153 9 -49 20 -119
24 -155 13 -99 37 -219 53 -273 9 -27 13 -63 10 -81 -4 -27 1 -39 26 -68 16
-19 50 -45 75 -59 55 -28 59 -47 40 -154 -8 -44 -18 -131 -21 -194 -6 -115
-14 -122 -28 -27 -5 33 -3 55 6 73 11 21 11 31 -3 69 -8 24 -12 44 -7 44 5 0
9 -6 10 -12 0 -7 5 0 11 16 8 22 7 31 -3 38 -11 7 -11 11 -1 15 6 2 12 12 12
21 -1 14 -3 14 -16 -3 -8 -11 -13 -30 -11 -42 5 -27 -1 -28 -32 -6 -24 16 -24
16 -18 -8 4 -13 7 -39 7 -57 0 -30 2 -33 23 -27 16 5 18 4 8 -4 -8 -5 -16 -22
-19 -38 -4 -36 -12 -43 -12 -11 0 36 -25 55 -39 31 -10 -17 -10 -17 -11 0 0 9
-7 17 -16 17 -8 0 -13 4 -9 10 3 5 12 7 20 3 8 -3 15 0 15 6 0 6 -10 11 -23
11 -27 0 -47 17 -47 41 0 9 -7 20 -16 23 -9 3 -14 13 -11 20 3 8 0 17 -8 20
-8 3 -16 0 -18 -7 -2 -7 -8 10 -12 36 -5 32 -4 52 4 60 6 6 11 20 11 32 0 12
4 25 10 31 5 5 12 41 16 79 5 55 2 89 -15 158 -12 48 -19 91 -16 97 3 5 -2 10
-12 11 -10 0 -13 3 -5 6 6 2 12 12 12 21 0 13 -2 14 -8 4 -7 -9 -13 -8 -27 8
-10 11 -24 20 -32 20 -7 0 -13 7 -13 16 0 11 6 14 22 8 21 -6 21 -6 5 10 -9
10 -17 23 -17 29 0 8 3 7 9 -2 5 -7 14 -12 20 -10 7 3 1 15 -13 30 -18 20 -22
29 -13 38 8 8 8 14 -1 23 -9 9 -12 8 -12 -5 0 -20 -4 -21 -32 -6 l-20 11 21
19 c11 10 25 19 31 19 6 0 8 5 5 10 -4 7 -13 7 -26 0 -10 -6 -19 -9 -19 -6 0
3 -12 -2 -27 -9 -21 -11 -29 -11 -35 -2 -10 17 12 39 35 33 18 -4 57 24 57 43
0 5 -12 16 -26 26 -24 16 -26 16 -40 -2 -11 -14 -11 -9 1 27 10 27 12 46 6 48
-5 2 -8 9 -5 16 3 7 -2 25 -10 41 -8 16 -13 32 -10 37 3 4 -5 8 -18 8 -13 0
-18 4 -12 8 6 4 13 15 17 25 5 13 1 17 -20 17 -26 0 -26 1 -7 14 12 9 23 11
30 5 13 -11 24 -1 24 22 0 9 9 19 20 22 20 5 29 37 9 37 -5 0 -7 -4 -4 -10 3
-5 -1 -10 -9 -10 -9 0 -16 4 -16 9 0 4 -12 8 -27 9 -62 0 -73 3 -73 16 0 9 8
12 25 8 13 -2 32 -1 42 2 15 6 15 8 3 16 -10 6 -15 26 -15 60 0 30 -5 52 -12
55 -7 2 -12 1 -12 -3 4 -21 -2 -42 -12 -42 -6 0 -8 9 -4 20 3 11 2 20 -3 20
-6 0 -8 27 -4 65 3 42 1 65 -6 65 -10 0 -14 -14 -28 -92 -6 -37 -24 -53 -24
-23 0 8 -4 15 -10 15 -5 0 -7 -7 -4 -15 4 -8 1 -15 -5 -15 -6 0 -11 6 -11 13
0 7 -3 8 -8 2 -4 -5 -21 -11 -39 -11 -28 -2 -31 0 -21 16 7 10 19 16 27 13 14
-4 14 -3 2 5 -9 7 -21 7 -32 2 -11 -7 -17 -6 -16 3 1 34 -5 47 -20 47 -14 0
-15 -2 -5 -9 10 -6 10 -10 -2 -20 -10 -8 -16 -9 -21 -1 -10 17 -25 12 -35 -12
-10 -25 -12 -19 -14 50 -2 40 -1 43 20 39 14 -2 25 2 28 10 3 8 1 11 -4 8 -6
-3 -10 -2 -10 3 0 5 -12 7 -28 4 -26 -3 -27 -6 -27 -55 0 -48 -2 -52 -25 -56
-14 -1 -28 -8 -31 -13 -4 -6 -12 -2 -18 11 -7 11 -19 21 -29 21 -13 0 -14 2
-3 9 8 5 9 11 3 15 -6 3 -8 16 -4 29 l5 22 -22 -20 c-16 -14 -22 -15 -19 -5 2
9 -4 14 -14 14 -9 -1 -14 4 -12 11 3 7 0 16 -6 20 -6 3 -10 3 -9 -2 4 -22 -2
-44 -11 -38 -5 3 -7 12 -4 20 4 10 -1 12 -18 8 -18 -4 -20 -3 -8 6 13 9 12 12
-7 17 -11 3 -23 14 -26 25 -3 12 -11 17 -20 13 -11 -4 -17 2 -19 23 -3 23 -5
20 -12 -19 -8 -46 -18 -59 -31 -38 -3 6 -2 10 3 10 16 0 20 49 5 61 -10 9 -18
8 -31 -5 -24 -21 -32 -20 -32 4 0 11 -7 20 -16 20 -8 0 -12 5 -9 10 4 6 -5 10
-19 10 -19 0 -26 5 -26 19 0 10 -7 21 -15 25 -20 7 -19 26 1 26 14 0 14 1 0
16 -9 8 -14 19 -12 22 2 4 -5 16 -15 26 -11 11 -19 14 -19 8 0 -6 5 -14 10
-17 6 -4 7 -11 4 -17 -4 -6 0 -14 7 -19 7 -4 10 -11 6 -16 -5 -4 -11 -3 -15 2
-4 6 -16 15 -27 21 -11 6 -21 20 -23 30 -2 10 -19 29 -38 42 -27 18 -34 28
-30 45 3 12 3 17 0 10 -7 -15 -44 5 -44 24 0 7 -6 13 -12 14 -7 0 -2 5 12 11
23 10 23 11 5 15 -11 3 -24 10 -30 17 -5 7 -20 18 -31 24 -20 11 -22 9 -21
-16 1 -15 6 -30 12 -34 11 -8 -43 -30 -56 -22 -5 3 -9 0 -9 -5 0 -6 7 -11 15
-11 8 0 15 -7 15 -16 0 -10 -6 -14 -15 -10 -8 3 -15 2 -15 -3 0 -5 8 -11 19
-14 12 -3 19 -13 19 -31 0 -14 -4 -23 -9 -20 -5 3 -9 14 -9 25 0 10 -4 19 -10
19 -5 0 -7 -6 -4 -14 3 -7 -2 -16 -12 -20 -21 -8 -59 31 -61 64 -3 32 -23 51
-23 21 0 -12 -4 -20 -10 -16 -5 3 -8 11 -6 18 1 7 1 9 -1 5 -6 -11 -33 -10
-33 0 0 5 10 14 23 21 21 10 21 11 1 6 -29 -7 -76 15 -70 32 3 8 1 11 -4 8
-13 -8 -50 13 -75 42 -11 12 -26 23 -33 23 -8 0 -22 5 -33 10 -16 9 -17 14 -8
32 9 18 9 20 -4 15 -10 -4 -22 3 -32 19 -9 14 -21 22 -27 18 -8 -5 -9 -1 -5
11 9 22 -10 46 -30 38 -13 -5 -15 -2 -9 13 6 15 5 16 -5 7 -10 -10 -17 -6 -36
19 -13 18 -23 35 -23 39 0 4 -13 36 -29 71 -16 35 -32 77 -36 93 -4 17 -13 44
-20 60 -22 49 -135 338 -135 344 0 3 17 -11 38 -30 20 -20 60 -54 87 -76z
m-2513 -255 c-7 -7 -12 -8 -12 -2 0 14 12 26 19 19 2 -3 -1 -11 -7 -17z m178
-25 c0 -5 -5 -15 -10 -23 -8 -12 -10 -11 -10 8 0 12 5 22 10 22 6 0 10 -3 10
-7z m-127 -98 c-3 -9 -8 -14 -10 -11 -3 3 -2 9 2 15 9 16 15 13 8 -4z m2627
-187 c0 -9 3 -9 9 1 7 10 9 7 8 -12 -2 -34 -11 -34 -25 -2 -7 15 -8 25 -2 25
6 0 10 -6 10 -12z m40 -81 c0 -5 -4 -5 -10 -2 -5 3 -10 14 -10 23 0 15 2 15
10 2 5 -8 10 -19 10 -23z m18 -42 c-3 -3 -9 2 -12 12 -6 14 -5 15 5 6 7 -7 10
-15 7 -18z m40 -2 c-2 -9 -8 -18 -15 -20 -7 -3 -9 3 -6 16 6 25 26 28 21 4z
m512 -267 c0 -3 -4 -8 -10 -11 -5 -3 -10 -1 -10 4 0 6 5 11 10 11 6 0 10 -2
10 -4z m-4350 -36 c0 -5 -7 -10 -15 -10 -8 0 -15 5 -15 10 0 6 7 10 15 10 8 0
15 -4 15 -10z m-413 -35 c-9 -7 -13 -16 -9 -21 4 -4 0 -3 -9 4 -12 9 -18 9
-27 0 -9 -9 -12 -8 -12 4 0 11 7 16 19 13 11 -2 22 3 25 11 3 9 11 12 17 8 9
-5 7 -11 -4 -19z m483 -5 c-8 -5 -19 -10 -25 -10 -5 0 -3 5 5 10 8 5 20 10 25
10 6 0 3 -5 -5 -10z m-630 -84 c0 -3 -4 -8 -10 -11 -5 -3 -10 -1 -10 4 0 6 5
11 10 11 6 0 10 -2 10 -4z m5200 -20 c0 -3 -4 -8 -10 -11 -5 -3 -10 -1 -10 4
0 6 5 11 10 11 6 0 10 -2 10 -4z m-23 -32 c-3 -3 -12 -4 -19 -1 -8 3 -5 6 6 6
11 1 17 -2 13 -5z m197 -117 c-5 -16 -2 -18 18 -13 20 6 20 5 5 -4 -19 -12
-32 -7 -46 18 -7 14 -5 18 10 18 14 0 17 -5 13 -19z m480 -126 c4 -5 -3 -7
-14 -4 -23 6 -26 13 -6 13 8 0 17 -4 20 -9z m-47 -113 c-3 -7 -5 -2 -5 12 0
14 2 19 5 13 2 -7 2 -19 0 -25z m48 -18 c3 -5 2 -10 -3 -10 -6 0 -8 -10 -6
-22 2 -13 1 -16 -2 -8 -4 8 -11 18 -17 21 -11 7 -1 29 13 29 5 0 12 -4 15 -10z
m50 -10 c3 -5 -1 -10 -9 -10 -9 0 -16 5 -16 10 0 6 4 10 9 10 6 0 13 -4 16
-10z m-45 -95 c0 -5 -5 -3 -10 5 -5 8 -10 20 -10 25 0 6 5 3 10 -5 5 -8 10
-19 10 -25z m40 -25 c0 -5 -7 -7 -15 -4 -8 4 -15 8 -15 10 0 2 7 4 15 4 8 0
15 -4 15 -10z m-6 -141 c-3 -5 -10 -7 -15 -3 -5 3 -7 10 -3 15 3 5 10 7 15 3
5 -3 7 -10 3 -15z m36 -63 c0 -11 -19 -15 -25 -6 -3 5 1 10 9 10 9 0 16 -2 16
-4z m47 -122 c-3 -3 -12 -4 -19 -1 -8 3 -5 6 6 6 11 1 17 -2 13 -5z m-6345
-611 c-6 -47 -15 -67 -39 -93 -18 -20 -29 -39 -25 -48 3 -10 1 -13 -6 -8 -7 4
-12 2 -12 -3 0 -6 -5 -11 -11 -11 -7 0 -18 -8 -25 -17 -13 -17 -13 -17 -14 2
-1 18 -2 18 -11 -3 -10 -26 -39 -27 -47 -2 -5 13 -3 13 12 1 14 -12 16 -12 10
3 -3 9 -12 16 -20 16 -12 0 -86 -99 -95 -129 -3 -8 -13 4 -23 27 -20 44 -17
69 11 79 10 3 34 19 54 35 20 15 41 28 45 28 5 0 32 23 61 52 36 36 53 47 53
35 0 -9 6 -17 14 -17 9 0 16 17 21 46 3 25 13 48 21 51 8 3 14 12 14 21 0 11
3 13 10 6 7 -7 7 -32 2 -71z m3620 -200 c-42 -207 -43 -213 -33 -213 11 0 59
129 67 180 4 22 10 37 15 35 4 -3 10 -1 14 5 3 5 2 10 -3 10 -6 0 -8 10 -4 22
5 21 6 21 13 2 5 -13 8 -14 9 -4 1 9 5 6 10 -7 5 -13 15 -23 21 -23 8 0 8 4
-1 15 -10 12 -10 15 4 15 15 0 20 -10 17 -36 -1 -6 6 -11 14 -11 10 0 13 8 11
24 -3 12 0 25 5 28 5 4 9 -1 9 -11 0 -13 3 -14 15 -4 12 10 15 9 15 -4 0 -13
6 -16 23 -11 15 4 18 4 8 -3 -7 -5 -10 -15 -6 -21 5 -9 11 -9 23 1 13 11 15
10 9 -4 -4 -12 -2 -15 9 -11 8 3 14 -1 14 -11 0 -9 8 -16 20 -16 11 0 20 5 20
11 0 7 7 8 18 4 9 -4 22 -8 29 -9 16 -3 30 -16 17 -16 -5 0 -10 -9 -11 -20 -1
-16 4 -20 28 -20 16 0 29 4 29 8 0 5 10 8 23 7 12 -1 25 5 29 14 5 12 7 11 7
-6 1 -17 -5 -23 -19 -23 -11 0 -20 -5 -20 -11 0 -6 7 -9 15 -5 9 3 15 0 15 -9
0 -8 9 -15 20 -15 12 0 20 7 20 18 0 12 2 14 8 4 5 -7 16 -10 24 -7 9 4 18 -1
22 -10 10 -26 -4 -38 -23 -21 -17 15 -66 11 -56 -5 3 -4 12 -6 20 -2 8 3 15 0
15 -6 0 -6 -8 -11 -17 -12 -14 0 -15 -2 -3 -6 8 -4 20 -13 26 -21 6 -8 16 -12
22 -8 8 5 10 1 5 -10 -4 -12 -3 -15 5 -10 7 4 12 4 12 1 0 -7 -3 -15 -70 -168
-24 -53 -41 -100 -37 -103 5 -6 26 28 92 151 21 39 44 79 51 90 12 17 14 17
14 2 0 -19 20 -24 21 -4 0 7 3 6 6 -3 4 -8 13 -21 22 -28 14 -11 14 -11 -3 -5
-13 4 -17 3 -12 -5 10 -17 -9 -15 -24 3 -18 22 -32 18 -20 -6 9 -15 8 -24 -1
-35 -18 -22 -2 -30 20 -10 11 10 22 13 25 8 3 -6 0 -12 -6 -15 -7 -2 -10 -8
-5 -12 4 -5 14 0 22 11 13 17 17 17 28 4 7 -9 26 -14 47 -13 32 2 33 2 13 -9
-38 -19 -29 -38 15 -31 l37 6 -23 -25 c-12 -13 -19 -28 -15 -32 4 -4 0 -4 -10
0 -9 3 -17 2 -17 -4 0 -5 7 -12 15 -16 8 -3 15 -12 15 -21 0 -8 5 -15 10 -15
6 0 10 8 10 19 0 10 9 21 21 24 17 5 18 3 7 -10 -10 -13 -10 -17 0 -20 6 -3
12 -13 12 -23 0 -14 5 -17 23 -13 l22 6 -22 -25 c-29 -30 -29 -42 -2 -35 25 7
51 -2 43 -14 -3 -5 -15 -9 -26 -9 -12 0 -18 -3 -14 -7 4 -4 24 -6 44 -5 35 2
36 2 17 -13 -11 -8 -25 -13 -32 -11 -7 3 -13 2 -13 -3 0 -16 13 -21 27 -9 11
8 12 7 7 -6 -3 -9 -1 -16 5 -16 6 0 11 7 11 15 0 8 7 15 15 15 18 0 19 -12 4
-27 -9 -9 -7 -10 9 -6 30 7 41 -23 16 -42 -18 -14 -18 -14 5 -15 16 0 21 -4
18 -14 -4 -9 5 -19 24 -26 33 -14 30 -30 -7 -30 -13 0 -24 -4 -24 -9 0 -17 23
-25 59 -22 29 2 32 1 20 -12 -10 -10 -16 -11 -21 -4 -5 8 -14 7 -32 -3 -33
-17 -34 -34 -1 -26 19 5 25 2 25 -10 0 -13 3 -14 14 -5 9 8 16 8 20 2 4 -5 -3
-16 -15 -24 -15 -11 -17 -16 -7 -21 7 -3 3 -4 -9 -2 -12 2 -24 -2 -27 -10 -6
-16 9 -28 24 -19 6 3 7 -1 4 -9 -9 -24 22 -20 46 6 11 12 20 16 20 9 0 -12
-25 -42 -35 -41 -19 1 -23 -2 -28 -21 -8 -30 8 -66 32 -74 26 -8 27 -23 4 -32
-10 -4 -27 -15 -37 -25 -16 -15 -18 -22 -8 -50 l12 -33 -6 38 c-4 32 -2 37 16
37 13 0 20 -7 20 -18 0 -10 3 -22 8 -26 10 -10 10 -56 0 -56 -18 0 -6 -42 17
-66 27 -27 45 -84 27 -84 -5 0 -8 9 -5 20 5 20 -4 25 -37 20 -24 -3 -38 -22
-15 -20 33 4 38 1 25 -15 -12 -15 -3 -21 24 -16 5 1 15 0 23 -3 11 -5 11 -9 1
-25 -14 -23 -4 -41 13 -24 9 9 16 9 30 0 17 -10 17 -12 -2 -35 -10 -14 -19
-30 -19 -37 0 -7 -14 -11 -37 -10 -33 1 -39 4 -45 30 -6 28 -7 27 -5 -7 1 -20
-2 -40 -6 -44 -4 -4 -7 0 -7 9 0 9 -5 19 -11 23 -8 4 -9 -1 -4 -17 4 -13 14
-28 22 -32 11 -7 11 -12 3 -22 -7 -8 -9 -19 -5 -24 4 -7 0 -8 -11 -4 -13 5
-15 2 -10 -15 4 -11 2 -23 -3 -26 -6 -4 -8 -12 -5 -19 8 -22 -41 -71 -65 -64
-25 6 -50 -27 -28 -37 6 -4 -3 -4 -21 -1 -29 4 -32 3 -22 -14 8 -16 4 -23 -25
-40 -20 -11 -38 -27 -41 -36 -4 -8 -13 -15 -22 -15 -8 0 -12 -3 -9 -6 3 -4 2
-15 -4 -25 -6 -13 -6 -19 1 -19 5 0 10 -11 10 -25 0 -25 -15 -35 -22 -14 -2 5
-11 7 -20 4 -9 -4 -14 -13 -11 -21 3 -9 -1 -14 -12 -14 -9 0 -13 -4 -10 -10 3
-5 15 -10 26 -10 10 0 19 -4 19 -10 0 -5 -6 -10 -14 -10 -8 0 -18 5 -21 10 -7
11 -45 14 -45 4 0 -4 11 -17 25 -30 22 -20 24 -27 15 -44 -6 -11 -16 -18 -21
-14 -7 4 -7 10 0 17 18 18 13 25 -24 37 -19 6 -35 16 -35 21 0 6 -4 8 -9 5
-16 -10 -1 -42 21 -43 28 -2 32 -8 19 -30 -6 -10 -11 -14 -11 -9 0 13 -50 -43
-50 -56 0 -7 -13 -8 -35 -5 -21 3 -33 2 -30 -4 4 -5 -3 -9 -14 -9 -14 0 -21
-6 -21 -19 0 -15 -8 -21 -32 -23 -27 -2 -36 -10 -51 -40 -21 -47 -31 -49 -22
-6 6 32 5 32 -13 -7 -10 -22 -15 -41 -10 -43 4 -2 8 -8 8 -13 0 -4 -7 -6 -15
-3 -11 4 -15 -1 -16 -17 0 -22 -1 -23 -8 -4 -7 17 -9 16 -15 -13 l-8 -33 -23
25 c-13 14 -26 22 -29 17 -3 -5 2 -15 10 -22 15 -12 14 -14 -7 -20 -24 -7 -24
-7 -1 -8 12 -1 22 -5 22 -11 0 -16 -27 -12 -45 6 -15 15 -17 15 -31 -2 -13
-16 -15 -16 -10 -2 2 9 -1 19 -9 22 -15 5 -65 -15 -65 -26 0 -12 12 -9 31 8
11 10 19 12 24 5 3 -6 1 -11 -4 -11 -6 0 -11 -9 -11 -19 0 -14 -5 -18 -20 -14
-12 3 -22 -1 -26 -11 -9 -23 -23 -20 -17 4 3 11 0 20 -6 20 -6 0 -11 -11 -11
-25 0 -14 -5 -25 -11 -25 -5 0 -7 5 -3 12 4 7 3 8 -4 4 -7 -4 -12 -13 -12 -21
0 -8 -5 -17 -11 -21 -7 -4 -9 0 -5 13 5 14 -1 21 -25 30 -33 13 -63 7 -52 -10
4 -7 0 -8 -12 -3 -11 4 -22 2 -26 -6 -6 -9 -11 -9 -22 1 -13 10 -15 9 -11 -6
3 -10 -1 -26 -9 -37 -11 -15 -21 -17 -55 -11 -23 4 -42 11 -42 16 0 6 -4 8 -9
4 -6 -3 -15 3 -21 12 -9 15 -10 14 -5 -9 4 -20 1 -28 -8 -28 -19 0 -15 50 6
81 19 26 22 85 7 109 -7 12 -10 8 -10 -15 0 -16 -10 -50 -23 -75 -17 -35 -28
-45 -47 -45 -18 0 -24 5 -22 18 2 13 -4 17 -28 17 -16 0 -30 -4 -30 -10 0 -5
-7 -10 -16 -10 -14 0 -15 2 -3 17 12 15 12 16 -3 10 -12 -4 -19 2 -26 23 -6
15 -9 30 -7 32 2 1 -3 9 -11 16 -12 11 -13 5 -8 -42 l7 -55 -36 -6 c-49 -9
-57 -2 -57 53 0 69 -14 85 -34 37 -20 -47 -20 -61 -2 -46 12 10 13 8 9 -8 -3
-12 -8 -21 -12 -21 -3 0 -6 -22 -6 -50 0 -28 -4 -49 -10 -47 -5 1 -9 5 -8 8 4
13 -89 21 -97 9 -5 -9 -9 -9 -14 -1 -4 6 -4 16 -1 21 3 6 1 10 -4 10 -6 0 -11
8 -12 18 0 12 -3 10 -10 -8 l-10 -25 -17 23 c-13 17 -20 20 -29 11 -9 -9 -19
-8 -41 2 -17 7 -29 16 -26 20 2 4 -6 7 -19 7 -12 0 -31 2 -42 5 -11 2 -25 0
-31 -4 -7 -6 -16 -4 -23 5 -7 8 -19 12 -27 9 -8 -3 -14 0 -14 6 0 6 8 11 18
11 14 0 15 2 2 10 -8 5 -16 14 -16 20 -1 5 -2 15 -3 20 0 6 -8 10 -16 10 -8 0
-15 -4 -15 -10 0 -5 -5 -10 -10 -10 -6 0 -9 10 -7 23 2 12 2 16 0 9 -3 -6 -12
-12 -21 -12 -14 0 -14 2 -3 9 19 12 4 31 -25 31 -15 0 -24 -6 -24 -15 0 -8 -4
-15 -10 -15 -5 0 -10 9 -10 20 0 12 -7 20 -17 21 -12 1 -9 4 7 9 22 6 23 8 8
15 -22 9 -52 -1 -43 -15 3 -5 -1 -10 -9 -10 -9 0 -15 3 -15 8 4 23 -4 29 -38
27 -21 -2 -32 -1 -25 2 15 6 16 23 0 23 -6 0 -19 7 -29 16 -17 16 -17 17 3 34
l22 18 -31 6 c-22 5 -30 12 -26 22 3 7 10 11 17 7 6 -4 5 1 -3 10 -8 11 -18
14 -25 8 -12 -9 -43 -7 -54 4 -3 3 3 8 14 11 20 5 32 44 13 44 -5 0 -9 -6 -10
-12 0 -7 -5 -3 -11 10 -6 12 -18 22 -27 22 -23 1 -54 27 -46 39 3 6 0 11 -7
11 -7 0 -22 8 -33 16 -20 16 -20 16 2 10 12 -4 24 -2 28 4 4 7 -2 14 -13 17
-12 3 -22 14 -24 25 -2 12 -14 25 -27 30 -21 7 -22 6 -11 -7 11 -13 11 -18 0
-28 -9 -9 -14 -9 -17 -1 -2 7 -13 10 -23 7 -11 -3 -20 0 -20 6 0 6 8 11 18 11
16 1 16 1 -1 11 -9 6 -15 15 -11 20 3 6 2 18 -2 27 -13 30 -13 46 -2 60 14 17
-7 33 -30 24 -11 -4 -14 -1 -9 11 3 9 2 17 -3 17 -5 0 -11 -8 -13 -17 -3 -10
-5 0 -6 22 0 29 2 36 9 25 5 -8 10 -11 10 -6 0 5 6 3 14 -3 11 -9 15 -8 20 4
3 10 2 13 -5 10 -5 -4 -19 5 -30 19 -11 15 -25 24 -29 21 -5 -3 -14 3 -19 14
-9 16 -8 18 8 14 16 -4 19 -1 14 16 -4 15 -1 21 11 21 14 0 14 3 4 20 -7 11
-14 16 -16 10 -2 -5 -7 -10 -11 -10 -4 0 -5 21 0 48 4 26 6 48 5 48 0 1 -19 6
-41 12 -28 7 -33 10 -16 11 20 1 21 3 11 16 -9 11 -9 15 -1 15 7 0 10 4 6 10
-3 5 -13 6 -23 3 -16 -6 -16 -5 1 14 23 27 22 33 -9 33 -14 0 -23 4 -19 10 3
6 19 10 36 10 16 0 29 4 29 10 0 5 -7 7 -15 4 -10 -4 -15 0 -15 11 0 9 -4 13
-10 10 -5 -3 -10 -2 -10 4 0 5 5 13 10 16 6 4 8 11 4 16 -4 6 -14 3 -25 -7
-15 -13 -19 -14 -19 -3 0 23 58 72 80 66 12 -3 17 0 14 7 -3 8 -17 11 -35 8
-29 -4 -30 -3 -20 17 9 16 8 27 -4 52 -15 28 -15 32 4 65 12 19 21 47 22 62 0
24 1 25 9 7 5 -11 9 -15 9 -8 1 6 4 19 8 29 4 12 3 15 -5 10 -19 -12 -35 3
-21 20 6 7 15 11 20 8 5 -3 9 0 9 5 0 6 -4 11 -9 11 -16 0 -20 38 -4 44 8 3
12 10 8 15 -3 5 -1 12 4 16 6 3 8 12 5 19 -3 8 6 23 20 34 28 21 33 32 15 32
-14 0 -40 26 -32 33 3 3 13 1 24 -6 27 -17 31 -5 15 41 -9 23 -11 42 -6 42 6
0 10 -6 10 -12 0 -13 39 31 40 44 0 3 -10 4 -22 2 -13 -2 -17 -2 -10 2 6 3 12
12 12 19 0 7 -6 16 -12 18 -8 4 -7 6 3 6 9 1 19 8 23 16 3 8 9 14 13 13 8 -3
13 5 13 22 0 5 -7 7 -15 4 -8 -4 -15 -1 -15 4 0 11 30 24 46 21 23 -4 34 3 34
20 0 11 -6 22 -12 24 -7 3 2 8 21 13 31 7 33 8 16 21 -17 12 -16 13 11 13 37
0 48 9 33 27 -14 17 2 17 21 1 8 -7 4 -1 -9 15 -20 22 -21 27 -8 27 9 0 20 8
26 17 8 14 12 15 25 4 9 -7 16 -10 16 -7 0 13 -28 36 -44 36 -20 0 -21 19 -2
26 8 3 12 13 9 25 -3 11 0 19 8 19 7 0 9 3 6 7 -12 11 14 32 31 26 14 -5 15
-3 5 8 -7 7 -13 19 -13 27 0 12 2 12 16 1 15 -12 16 -11 10 9 -4 13 -3 22 3
22 5 0 13 -10 17 -22 4 -13 19 -41 34 -63 15 -22 49 -73 75 -113 26 -40 52
-75 56 -78 23 -14 4 46 -41 134 -31 59 -46 100 -40 106 6 6 5 16 -1 28 -7 12
-6 18 1 18 6 0 16 -11 22 -25 6 -14 16 -25 21 -25 5 0 4 6 -2 14 -12 15 -4 49
10 41 13 -9 49 18 49 37 0 20 15 24 25 8 3 -5 12 -10 18 -10 7 0 6 4 -3 11
-12 9 -11 10 7 6 31 -7 37 7 19 43 -16 33 -11 38 14 15 10 -9 25 -13 34 -9 21
8 21 22 0 20 -9 0 -19 5 -22 13 -3 11 2 12 23 7 29 -7 30 -2 9 48 -6 17 -4 18
21 14 33 -7 55 -1 55 14 0 6 -7 5 -15 -2 -19 -16 -24 -11 -31 32 -5 27 -2 37
11 41 18 8 55 -8 55 -23 0 -6 5 -10 10 -10 6 0 10 6 10 14 0 17 23 27 40 16 8
-5 10 -17 6 -35 -6 -25 -6 -26 9 -11 10 9 14 23 11 32 -6 17 24 16 37 -1 4 -6
10 -6 15 3 5 8 13 -7 21 -40 17 -70 72 -238 79 -238 8 0 -8 143 -23 200 -19
70 -19 70 4 70 11 0 23 5 27 11 5 8 10 6 16 -5 5 -9 16 -16 23 -16 9 0 15 -11
16 -27 1 -27 1 -27 10 5 12 39 21 42 19 5 -1 -16 -2 -72 -1 -125 1 -105 16
-131 27 -48 4 28 10 53 14 55 5 3 6 13 3 23 -2 10 3 25 12 32 14 12 18 12 25
-1 7 -11 12 -11 22 -1 18 18 25 15 32 -13 7 -27 0 -25 149 -29 45 -2 57 1 58
13 0 11 2 12 6 4 7 -19 27 -16 56 7 28 23 37 25 37 9 0 -5 -4 -7 -10 -4 -5 3
-10 1 -10 -4 0 -13 11 -14 43 -2 24 9 25 8 30 -42 3 -29 12 -68 20 -87 l15
-35 1 67 c1 43 5 68 14 72 10 5 10 7 0 12 -16 7 -18 154 -3 154 6 0 10 8 10
18 1 15 2 15 15 -2 11 -14 15 -16 15 -5 0 11 2 12 9 0 6 -10 10 -10 16 -1 6 9
9 9 15 0 4 -7 11 3 15 27 5 21 10 30 12 21 2 -9 -9 -83 -25 -165z m-872 121
c0 -8 -4 -12 -10 -9 -5 3 -10 10 -10 16 0 5 5 9 10 9 6 0 10 -7 10 -16z m4729
-6 c31 -19 61 -73 61 -109 0 -44 -8 -54 -44 -54 -23 0 -33 -7 -48 -33 -10 -18
-38 -53 -61 -77 -24 -24 -52 -64 -62 -89 -11 -25 -23 -46 -27 -46 -4 0 -8 -11
-8 -24 0 -22 -27 -62 -36 -53 -2 2 1 19 6 38 6 18 10 42 10 51 0 28 -19 21
-26 -9 -12 -61 -24 -68 -18 -13 3 30 8 63 10 73 3 9 1 17 -5 17 -11 0 -17 -16
-27 -73 -7 -39 -24 -61 -24 -30 0 10 9 50 20 88 22 79 23 85 12 85 -5 0 -16
-21 -24 -47 -15 -46 -16 -47 -17 -15 -1 17 -5 32 -11 32 -6 0 -11 -35 -11 -82
-1 -60 -4 -75 -9 -53 -25 97 2 210 71 301 59 77 76 91 99 76 16 -10 18 -9 14
3 -4 8 -11 15 -18 16 -6 0 12 11 39 25 51 24 98 25 134 2z m-4789 8 c0 -3 -4
-8 -10 -11 -5 -3 -10 -1 -10 4 0 6 5 11 10 11 6 0 10 -2 10 -4z m-3724 -44
c58 -43 113 -108 140 -167 28 -61 40 -162 26 -220 -10 -39 -10 -38 -11 27 -1
71 -20 107 -22 41 -1 -21 -2 -42 -4 -48 -1 -5 -3 -29 -3 -52 -1 -24 -6 -43
-11 -43 -5 0 -7 18 -4 39 6 45 -3 91 -17 91 -6 0 -10 -32 -10 -74 0 -41 -4
-78 -10 -81 -6 -4 -10 15 -10 49 0 44 -3 56 -16 56 -11 0 -15 -9 -14 -32 3
-53 1 -63 -10 -52 -5 5 -11 25 -13 44 -2 25 -7 35 -20 35 -9 0 -24 11 -33 25
-31 46 -98 110 -116 110 -33 0 -37 94 -6 166 6 16 12 34 13 41 0 7 13 26 29
42 37 39 71 40 122 3z m4988 -61 c7 -10 -32 -47 -40 -38 -7 7 14 47 26 47 5 0
11 -4 14 -9z m-47 -7 c-3 -3 -12 -4 -19 -1 -8 3 -5 6 6 6 11 1 17 -2 13 -5z
m103 -19 c0 -8 -4 -15 -10 -15 -5 0 -10 7 -10 15 0 8 5 15 10 15 6 0 10 -7 10
-15z m-630 -5 c0 -5 -4 -10 -10 -10 -5 0 -10 5 -10 10 0 6 5 10 10 10 6 0 10
-4 10 -10z m-159 -10 c6 0 7 -5 4 -10 -5 -8 -11 -8 -19 -1 -7 6 -16 8 -19 4
-4 -3 -7 -1 -7 6 0 8 6 11 16 7 9 -3 20 -6 25 -6z m3421 -65 c-3 -20 -7 -23
-18 -14 -11 9 -11 15 -3 25 18 21 27 17 21 -11z m8 -45 c5 8 9 7 13 -5 4 -10
3 -14 -4 -10 -6 4 -13 -2 -16 -14 -3 -12 -10 -21 -15 -21 -5 0 -8 -7 -6 -16 4
-21 53 -27 68 -9 9 11 17 9 46 -10 19 -13 56 -31 82 -41 66 -25 67 -26 64 -88
-3 -50 -6 -56 -26 -56 -12 0 -31 -7 -42 -15 -17 -13 -17 -14 -1 -15 9 0 17 5
17 10 0 6 5 10 11 10 6 0 9 -9 6 -20 -3 -10 0 -21 7 -23 6 -3 -1 -10 -17 -16
-15 -6 -30 -18 -33 -26 -5 -11 -10 -13 -19 -5 -18 15 -31 -6 -16 -24 6 -7 8
-16 4 -19 -3 -4 1 -7 11 -7 9 0 14 -4 11 -10 -12 -19 -35 -10 -35 14 0 13 -6
29 -14 35 -8 6 -19 25 -26 41 -7 16 -16 27 -21 24 -5 -3 -6 2 -3 10 4 10 1 16
-9 16 -16 0 -18 30 -2 43 6 5 -3 6 -20 2 l-30 -7 25 19 c14 11 51 34 83 52 64
36 68 59 6 35 -29 -12 -43 -13 -53 -5 -7 6 -16 8 -19 4 -4 -3 -7 -1 -7 5 0 7
5 12 12 12 6 0 2 9 -10 21 -12 11 -27 17 -32 14 -6 -4 -19 -4 -29 0 -21 7 -18
43 5 52 8 3 14 17 15 32 0 14 3 20 6 12 4 -10 7 -10 13 -1z m-4431 -69 c-1
-15 -2 -15 -6 0 -3 12 -11 15 -26 11 -20 -5 -21 -4 -8 11 10 13 17 15 27 6 8
-6 13 -19 13 -28z m171 32 c0 -5 -4 -14 -9 -21 -6 -10 -10 -9 -14 7 -3 14 0
21 9 21 8 0 14 -3 14 -7z m-57 -44 c4 -16 3 -18 -8 -9 -7 6 -15 20 -18 31 -4
16 -3 18 8 9 7 -6 15 -20 18 -31z m-133 -18 c0 -6 -4 -13 -10 -16 -5 -3 -10 1
-10 9 0 9 5 16 10 16 6 0 10 -4 10 -9z m4410 -11 c0 -13 -11 -13 -30 0 -12 8
-11 10 8 10 12 0 22 -4 22 -10z m40 -10 c0 -5 -4 -10 -10 -10 -5 0 -10 5 -10
10 0 6 5 10 10 10 6 0 10 -4 10 -10z m-4500 -24 c0 -3 -4 -8 -10 -11 -5 -3
-10 -1 -10 4 0 6 5 11 10 11 6 0 10 -2 10 -4z m-2983 -28 c-3 -8 -6 -5 -6 6
-1 11 2 17 5 13 3 -3 4 -12 1 -19z m2981 -18 c7 0 12 -5 12 -11 0 -5 -4 -8 -9
-4 -6 3 -28 1 -50 -4 -47 -10 -50 -6 -18 25 19 19 24 20 38 8 8 -8 21 -14 27
-14z m2182 -16 c0 -2 -7 -4 -15 -4 -8 0 -15 4 -15 10 0 5 7 7 15 4 8 -4 15 -8
15 -10z m90 -4 c0 -5 -4 -10 -10 -10 -5 0 -10 5 -10 10 0 6 5 10 10 10 6 0 10
-4 10 -10z m-5236 -89 c-5 -11 -9 -4 -14 24 -5 22 -5 44 -2 50 9 14 24 -55 16
-74z m2980 50 c3 -5 -3 -11 -14 -14 -20 -5 -26 3 -13 16 9 10 21 9 27 -2z
m-57 -7 c-3 -3 -12 -4 -19 -1 -8 3 -5 6 6 6 11 1 17 -2 13 -5z m4999 -19 c-14
-37 50 -115 95 -115 10 0 15 -14 16 -47 1 -25 9 -61 18 -79 31 -65 3 -173 -70
-274 -36 -50 -105 -201 -105 -230 0 -27 21 -36 35 -16 7 9 21 28 31 42 11 15
31 40 47 57 15 18 27 35 27 39 0 5 17 27 39 51 21 23 44 60 51 82 25 78 29 83
29 38 1 -24 8 -60 16 -80 8 -21 23 -70 34 -109 10 -40 25 -82 31 -95 7 -12 14
-48 16 -78 6 -111 16 -191 25 -191 5 0 9 -18 9 -39 0 -22 4 -42 8 -45 5 -3 7
-26 6 -53 -1 -26 3 -53 8 -60 14 -18 0 -110 -18 -117 -11 -4 -13 -16 -8 -43 6
-38 -18 -100 -65 -173 -9 -14 -27 -58 -40 -97 -18 -55 -29 -73 -42 -73 -10 0
-21 -5 -25 -11 -4 -8 0 -9 15 -4 23 7 27 -2 10 -25 -8 -11 -12 -12 -16 -2 -7
19 -23 14 -16 -5 6 -15 5 -16 -9 -3 -10 9 -12 17 -6 21 7 4 6 9 -1 13 -11 7
-15 -6 -11 -33 3 -21 -21 -61 -37 -61 -7 0 -13 -5 -13 -11 0 -6 -9 -8 -20 -4
-15 5 -20 2 -20 -13 0 -15 -5 -19 -20 -15 -24 6 -26 19 -4 31 12 6 15 18 12
36 -6 28 1 33 19 15 9 -9 12 -7 12 7 -1 52 26 81 85 93 19 4 32 14 34 25 3 16
0 18 -23 12 -26 -7 -27 -6 -22 26 14 79 18 163 8 148 -9 -13 -11 -13 -11 0 0
8 12 24 27 36 24 19 26 24 14 38 -11 13 -11 22 -1 46 13 31 8 60 -10 60 -5 0
-10 -9 -10 -19 0 -37 -19 -32 -25 6 -3 21 -7 45 -9 54 -2 9 3 45 11 80 15 64
17 110 7 141 -2 9 0 19 6 23 12 8 14 45 1 45 -5 0 -19 -16 -32 -35 -13 -19
-29 -35 -34 -35 -6 0 -19 -13 -28 -30 -10 -16 -25 -30 -33 -30 -8 0 -14 -7
-14 -15 0 -8 -4 -15 -10 -15 -5 0 -10 -13 -10 -30 0 -16 -5 -30 -11 -30 -9 0
-7 -51 6 -115 3 -16 -5 -24 -41 -39 -46 -19 -91 -66 -138 -146 -51 -87 -96
-185 -96 -207 0 -28 -4 -28 -40 -3 -60 43 -122 38 -174 -13 -63 -60 -76 -69
-82 -53 -9 24 -87 48 -143 45 -28 -2 -51 -3 -51 -1 0 2 6 15 14 31 13 25 20
27 64 27 42 -1 49 1 42 14 -5 10 0 25 17 45 14 17 22 23 18 15 -5 -8 -14 -22
-22 -32 -11 -12 -12 -18 -2 -24 7 -4 20 2 32 17 10 13 23 24 27 24 5 0 12 4
17 9 5 5 3 6 -4 2 -16 -9 -17 6 -2 21 6 6 19 9 28 6 12 -4 13 -3 3 4 -10 8
-10 12 3 23 12 10 15 10 15 -1 1 -8 7 -3 15 11 7 14 10 27 5 30 -4 3 2 18 15
34 19 24 25 26 43 17 14 -7 23 -8 27 -1 3 5 0 10 -7 10 -10 0 -11 2 0 8 8 5
10 16 5 28 -6 16 -5 17 9 6 14 -11 18 -10 28 7 6 12 16 21 24 21 18 0 74 53
69 66 -2 6 8 16 23 23 20 9 25 17 22 35 -4 18 -1 23 9 19 7 -3 24 6 37 20 13
14 27 23 30 20 3 -4 6 1 6 9 0 9 12 25 26 35 14 10 26 27 28 37 1 9 9 21 16
26 15 9 22 50 8 50 -5 0 -11 -7 -14 -15 -11 -28 -20 -15 -16 25 4 35 22 69 22
40 0 -6 5 -8 10 -5 6 4 9 14 8 23 -2 12 4 17 20 16 22 -1 24 3 26 41 1 13 7
19 17 17 12 -2 15 4 12 22 -6 29 -27 29 -93 -1 -25 -11 -55 -24 -67 -27 -20
-6 -21 -5 -13 31 14 61 -6 61 -24 0 -9 -30 -23 -58 -32 -61 -13 -5 -15 -2 -10
16 3 13 9 48 12 78 9 76 -9 54 -31 -37 -11 -47 -22 -73 -31 -73 -18 0 -17 8 0
58 8 22 17 53 19 69 6 34 26 121 33 146 3 11 0 17 -9 17 -8 0 -17 -14 -21 -32
-18 -94 -39 -179 -43 -175 -2 3 3 35 12 71 19 85 19 89 -4 81 -15 -4 -20 1
-25 26 -3 17 -6 45 -6 60 0 29 0 29 -26 13 l-26 -17 6 39 c24 153 31 184 48
224 11 25 23 47 27 50 3 3 19 21 35 39 15 19 47 49 70 65 81 59 136 110 168
158 31 46 57 65 44 33z m-5086 -9 c0 -3 -4 -8 -10 -11 -5 -3 -10 -1 -10 4 0 6
5 11 10 11 6 0 10 -2 10 -4z m112 -41 c6 -28 -6 -34 -16 -9 -8 22 -7 34 3 34
5 0 11 -11 13 -25z m-2455 -8 c-23 -44 -70 -97 -85 -97 -8 0 -24 -7 -34 -17
-27 -24 -23 3 5 30 34 33 120 107 123 107 2 0 -3 -10 -9 -23z m-522 -17 c-10
-11 -20 -18 -23 -15 -3 3 3 14 13 25 10 11 20 18 23 15 3 -3 -3 -14 -13 -25z
m2932 24 c-3 -3 -12 -4 -19 -1 -8 3 -5 6 6 6 11 1 17 -2 13 -5z m-2817 -75
c45 -49 83 -80 125 -100 70 -34 86 -47 140 -114 107 -132 131 -199 139 -383 3
-62 11 -140 18 -173 12 -59 12 -61 -12 -80 -29 -22 -100 -23 -100 -2 0 7 -5
13 -11 13 -6 0 -8 7 -4 18 5 13 4 14 -6 5 -10 -10 -9 -15 1 -28 7 -8 9 -15 4
-14 -8 0 -65 68 -109 129 -12 18 -28 27 -42 26 -26 -1 -29 -13 -10 -41 8 -11
22 -33 33 -50 l19 -30 -25 16 c-14 9 -51 63 -83 120 -32 57 -64 111 -71 119
-7 8 -24 34 -36 58 -13 23 -27 42 -31 42 -4 0 -10 8 -13 18 -4 10 -15 28 -25
39 -11 11 -24 47 -30 78 -6 32 -18 66 -27 76 -11 13 -16 43 -18 116 l-2 98 48
49 c26 26 48 52 48 57 0 20 18 6 80 -62z m2804 46 c3 -9 0 -15 -9 -15 -8 0
-15 7 -15 15 0 8 4 15 9 15 5 0 11 -7 15 -15z m4766 -15 c0 -5 -4 -10 -9 -10
-6 0 -13 5 -16 10 -3 6 1 10 9 10 9 0 16 -4 16 -10z m9 -34 c10 -12 8 -13 -8
-9 -12 3 -18 9 -15 14 7 12 10 11 23 -5z m91 5 c0 -5 -7 -12 -16 -15 -24 -9
-28 -7 -14 9 14 17 30 20 30 6z m-50 -31 c0 -5 -2 -10 -4 -10 -3 0 -8 5 -11
10 -3 6 -1 10 4 10 6 0 11 -4 11 -10z m-47 -33 c-3 -4 -6 -7 -7 -5 -1 2 -8 12
-16 22 -14 18 -14 18 7 6 12 -8 19 -18 16 -23z m-23 -27 c0 -5 -5 -10 -11 -10
-5 0 -7 5 -4 10 3 6 8 10 11 10 2 0 4 -4 4 -10z m-27 -17 c3 -5 -8 -24 -25
-43 -23 -28 -27 -30 -18 -10 6 14 13 33 16 43 7 18 19 22 27 10z m-7778 -323
c19 -14 35 -31 35 -39 0 -8 6 -22 14 -30 8 -9 40 -61 71 -116 63 -109 221
-350 266 -404 15 -19 26 -38 23 -43 -3 -4 1 -11 9 -14 8 -3 59 -49 115 -104
93 -91 135 -121 150 -106 3 4 -5 14 -19 24 -51 36 -143 118 -157 142 -9 14 10
1 41 -29 67 -65 91 -61 27 4 -40 41 -41 44 -18 42 14 -1 38 -18 57 -40 41 -46
51 -41 22 9 -26 43 -21 54 10 25 28 -26 45 -27 52 -2 3 14 11 17 31 14 20 -4
25 -2 21 10 -4 8 1 17 12 21 15 6 15 9 3 17 -12 9 -10 10 7 6 13 -3 25 -2 28
2 8 13 -25 50 -39 45 -19 -7 -29 12 -18 32 7 13 20 4 69 -53 55 -64 61 -76 78
-154 13 -61 18 -118 17 -207 -2 -71 2 -131 8 -142 9 -17 8 -20 -9 -20 -11 0
-26 6 -32 13 -16 17 -87 7 -125 -18 -15 -10 -29 -14 -31 -9 -2 5 -7 14 -11 20
-9 14 -135 84 -151 84 -7 0 -19 7 -27 15 -9 8 -28 15 -43 15 -24 0 -30 -5 -35
-31 -4 -21 -1 -36 7 -43 7 -6 26 -29 42 -51 16 -22 34 -44 41 -50 6 -5 20 -29
30 -52 10 -24 21 -43 26 -43 4 0 8 -6 8 -12 0 -14 56 -78 68 -78 9 0 46 -60
40 -65 -4 -4 -62 -7 -111 -6 -32 1 -45 8 -80 47 -23 26 -60 65 -81 87 -33 33
-40 46 -38 76 2 20 10 51 18 70 17 35 12 135 -7 147 -5 3 -7 9 -4 14 3 5 1 11
-5 15 -5 3 -10 17 -10 31 0 41 -85 129 -145 150 -44 15 -65 9 -65 -17 0 -10
-7 -19 -15 -19 -8 0 -15 -9 -15 -21 0 -11 4 -17 10 -14 13 8 50 -13 50 -29 0
-14 71 -82 81 -79 4 1 19 -23 35 -54 21 -43 29 -77 32 -137 l5 -79 -29 8 c-16
5 -48 10 -71 11 -46 2 -66 11 -58 25 4 5 2 9 -3 9 -6 0 -18 26 -27 58 -30 101
-52 157 -79 196 -14 21 -26 47 -26 57 0 11 -4 19 -10 19 -5 0 -7 7 -3 16 4 12
8 13 14 3 5 -8 14 9 24 45 10 32 26 74 37 92 18 30 19 38 8 67 -18 44 -78 144
-104 171 -27 30 -87 40 -93 16 -3 -13 -14 -17 -44 -15 -44 3 -66 15 -28 16 22
0 22 1 4 8 -11 5 -23 7 -27 4 -15 -8 -13 129 2 162 5 11 16 47 26 80 9 33 25
76 34 95 10 19 20 57 24 83 7 56 19 83 24 52 2 -11 18 -31 37 -45z m5715 -100
c0 -5 -7 -10 -15 -10 -8 0 -15 5 -15 10 0 6 7 10 15 10 8 0 15 -4 15 -10z
m-2865 -30 c3 -5 1 -10 -4 -10 -6 0 -11 5 -11 10 0 6 2 10 4 10 3 0 8 -4 11
-10z m5808 -222 c6 -8 7 -24 2 -34 -8 -18 -8 -18 -13 1 -2 11 -8 24 -13 30 -5
5 -9 13 -9 18 0 13 22 3 33 -15z m-8163 -72 c0 -6 -11 5 -25 24 -14 19 -25 36
-25 39 0 10 49 -53 50 -63z m5237 48 c-3 -3 -12 -4 -19 -1 -8 3 -5 6 6 6 11 1
17 -2 13 -5z m1893 -14 c0 -5 -2 -10 -4 -10 -3 0 -8 5 -11 10 -3 6 -1 10 4 10
6 0 11 -4 11 -10z m-7759 -80 c20 0 26 -16 8 -22 -5 -2 -11 -12 -13 -23 -3
-23 -41 -28 -41 -5 0 8 5 14 12 13 8 -2 10 10 8 35 -3 20 -2 29 1 20 3 -10 14
-18 25 -18z m5929 16 c0 -2 -7 -6 -15 -10 -8 -3 -15 -1 -15 4 0 6 7 10 15 10
8 0 15 -2 15 -4z m1870 -61 c44 -9 70 -23 70 -36 0 -6 -23 -38 -51 -70 -28
-33 -49 -65 -46 -73 3 -8 -1 -13 -11 -12 -10 0 -24 -14 -34 -36 -10 -21 -23
-38 -29 -38 -7 0 -9 -11 -5 -30 4 -25 2 -30 -14 -30 -28 0 -52 -28 -44 -54 5
-17 4 -19 -7 -8 -20 18 -31 15 -28 -10 4 -26 -7 -48 -22 -48 -6 0 -7 5 -3 12
4 7 3 8 -4 4 -7 -4 -12 -16 -12 -27 0 -13 -6 -19 -17 -17 -13 2 -18 -4 -18
-19 0 -13 -8 -31 -18 -40 -16 -16 -17 -14 -19 47 -3 117 7 205 31 264 9 23 9
31 -1 37 -10 6 -9 11 5 21 9 7 18 27 19 43 1 23 20 48 82 108 l80 77 30 -29
c17 -16 47 -32 66 -36z m-7733 38 c-13 -3 -16 -10 -11 -26 3 -12 7 -22 8 -22
0 0 14 -7 30 -15 24 -12 35 -30 58 -100 28 -82 28 -86 13 -133 -9 -26 -13 -53
-9 -59 4 -7 3 -8 -4 -4 -7 4 -19 -9 -31 -31 -10 -21 -28 -46 -39 -56 -19 -18
-22 -18 -70 3 -62 27 -117 24 -117 -5 0 -11 -9 -28 -20 -37 -19 -16 -19 -17
-2 -24 12 -4 26 1 40 13 53 48 101 39 140 -25 15 -26 44 -69 63 -97 20 -29 33
-59 31 -70 -2 -15 2 -21 14 -21 14 0 16 3 6 16 -10 13 -9 13 6 0 15 -14 57
-141 60 -182 1 -10 4 -18 8 -18 4 0 12 -21 19 -47 6 -26 17 -54 23 -62 9 -11
9 -15 -1 -18 -6 -3 -10 -8 -7 -13 8 -12 -33 0 -43 14 -16 19 -26 59 -13 52 8
-5 7 1 -1 19 -10 22 -13 24 -18 10 -5 -15 -8 -14 -21 6 -8 13 -23 40 -32 59
-17 37 -92 114 -139 143 -16 10 -28 25 -28 35 0 9 -16 32 -35 51 -19 19 -35
39 -35 46 0 18 -48 58 -72 60 -26 2 -26 4 -10 106 6 36 20 84 31 105 14 25 19
30 15 14 -4 -14 -3 -22 1 -18 5 4 14 3 22 -3 17 -15 16 -9 -3 30 -15 30 -15
36 4 89 11 31 25 79 32 105 10 37 16 47 29 42 9 -4 28 -9 43 -12 23 -5 26 -3
21 16 -3 14 0 23 12 27 12 5 13 9 5 14 -18 11 -2 30 23 29 18 -1 18 -2 4 -6z
m487 -99 c5 -14 4 -15 -9 -4 -17 14 -19 20 -6 20 5 0 12 -7 15 -16z m7686 -29
c0 -8 -4 -15 -10 -15 -5 0 -7 7 -4 15 4 8 8 15 10 15 2 0 4 -7 4 -15z m-7629
-42 c13 -16 12 -17 -3 -4 -10 7 -18 15 -18 17 0 8 8 3 21 -13z m134 7 c3 -5 1
-10 -4 -10 -6 0 -11 5 -11 10 0 6 2 10 4 10 3 0 8 -4 11 -10z m5162 -6 c-3 -3
-12 -4 -19 -1 -8 3 -5 6 6 6 11 1 17 -2 13 -5z m-37 -24 c0 -5 -7 -10 -15 -10
-8 0 -15 5 -15 10 0 6 7 10 15 10 8 0 15 -4 15 -10z m1854 -135 c-4 -8 -11
-15 -16 -15 -6 0 -5 6 2 15 7 8 14 15 16 15 2 0 1 -7 -2 -15z m500 0 c3 -8 15
-15 26 -15 13 0 20 -7 20 -20 0 -21 -50 -133 -62 -138 -4 -2 -12 -19 -18 -38
-6 -19 -18 -34 -26 -34 -8 0 -14 -6 -14 -14 0 -9 -7 -12 -20 -9 -10 3 -18 10
-17 15 3 14 -40 20 -48 8 -3 -6 -16 -10 -29 -10 -12 0 -27 -5 -34 -12 -20 -20
-14 0 27 80 69 140 89 167 136 188 39 17 52 17 59 -1z m-406 -20 c-3 -3 -9 2
-12 12 -6 14 -5 15 5 6 7 -7 10 -15 7 -18z m-151 -51 c-3 -3 -12 -4 -19 -1 -8
3 -5 6 6 6 11 1 17 -2 13 -5z m24 -21 c-6 -10 -29 -38 -52 -63 -47 -51 -41
-38 15 33 39 48 55 61 37 30z m-4592 -37 c0 -7 -2 -6 -6 2 -2 6 -9 10 -14 6
-5 -3 -9 2 -9 12 0 13 3 14 15 4 8 -7 15 -18 14 -24z m-2984 -17 c-4 -5 -12
-9 -18 -8 -9 0 -8 2 1 6 6 2 9 10 6 15 -4 7 -2 8 5 4 6 -4 9 -12 6 -17z m6671
-143 c1 -40 -2 -45 -25 -49 -34 -7 -58 22 -34 41 9 6 23 12 30 12 7 0 13 9 13
20 0 11 4 20 8 20 4 0 8 -20 8 -44z m-3576 11 c0 -19 -10 -27 -25 -20 -17 6
-8 33 11 33 8 0 14 -6 14 -13z m4929 -21 c15 -18 -16 -53 -32 -37 -16 16 -27
13 -21 -4 4 -8 1 -15 -5 -15 -6 0 -11 -5 -11 -11 0 -17 -29 -41 -40 -34 -7 4
-9 -5 -7 -27 3 -30 1 -33 -24 -34 -17 -1 -26 3 -22 9 3 6 1 7 -6 3 -8 -5 -9
-12 -3 -19 5 -7 12 -25 15 -41 4 -22 0 -30 -14 -33 -11 -3 -19 -11 -19 -19 0
-7 -9 -18 -21 -24 -16 -9 -18 -14 -8 -26 9 -12 9 -18 0 -27 -9 -9 -14 -9 -20
1 -5 9 -39 15 -92 19 -46 2 -138 10 -204 16 -137 14 -175 12 -175 -9 0 -8 -5
-14 -11 -14 -6 0 -9 3 -7 8 25 51 34 62 50 62 11 0 18 7 18 20 0 41 35 50 150
39 58 -6 118 -18 135 -27 30 -16 136 -44 143 -37 4 4 -27 32 -62 58 -18 13
-18 14 5 35 12 12 28 22 35 22 7 0 31 23 53 51 23 29 41 48 41 43 0 -5 9 6 20
24 11 18 25 30 30 27 5 -3 18 -1 27 4 26 15 69 13 82 -3z m-281 -36 c49 -30
49 -43 -4 -92 -50 -46 -61 -50 -143 -49 -71 2 -86 10 -66 38 9 12 22 20 29 17
9 -3 19 5 28 22 9 20 25 31 55 39 50 12 63 23 43 35 -12 8 -11 10 5 10 11 0
35 -9 53 -20z m-7556 -55 c-4 -5 -6 -19 -5 -30 1 -17 1 -17 -4 -2 -3 11 -11
16 -19 13 -19 -7 -18 0 4 29 16 22 39 14 24 -10z m798 5 c16 -11 39 -33 50
-47 16 -21 23 -24 29 -14 6 9 20 11 51 6 35 -6 45 -4 65 15 20 19 35 22 81 21
32 0 61 -6 65 -12 4 -8 14 -6 30 4 32 21 170 57 216 57 21 0 58 -10 83 -22
l45 -21 -45 -9 c-25 -5 -63 -13 -85 -17 -43 -10 -189 -62 -243 -87 -27 -13
-45 -14 -97 -5 -43 6 -87 6 -133 -1 -52 -7 -79 -7 -113 3 -24 7 -49 13 -56 12
-7 0 -11 3 -10 7 3 11 -45 70 -57 70 -6 0 -19 9 -29 20 -9 11 -24 20 -32 20
-8 0 -15 5 -15 11 0 6 6 9 13 6 7 -2 30 -1 52 3 57 10 101 4 135 -20z m5834 5
c27 -8 66 -25 85 -36 26 -15 51 -21 89 -20 29 0 63 -4 75 -11 12 -7 28 -11 35
-10 6 2 12 -1 12 -5 0 -5 9 -9 20 -9 12 0 19 5 16 12 -5 14 25 24 75 24 20 0
42 7 49 15 7 8 27 15 44 15 43 0 131 -27 145 -44 10 -12 5 -14 -34 -14 -29 0
-53 -7 -65 -17 -9 -9 -34 -19 -54 -22 -20 -3 -39 -10 -42 -14 -9 -15 -63 -10
-91 8 -21 14 -48 18 -127 17 -112 -1 -163 -9 -188 -31 -15 -14 -20 -13 -46 6
-35 24 -197 91 -223 91 -23 0 -34 19 -20 33 35 35 152 40 245 12z m-3639 4
c11 -17 -1 -21 -15 -4 -8 9 -8 15 -2 15 6 0 14 -5 17 -11z m4305 -19 c24 -17
28 -25 20 -36 -10 -11 -15 -10 -31 5 -23 21 -83 41 -125 41 -23 0 -26 2 -14
11 24 16 116 3 150 -21z m-6417 -16 c-4 -10 -9 -12 -15 -6 -12 12 -1 35 12 27
5 -3 6 -13 3 -21z m90 14 c-6 -11 -45 -10 -63 2 -11 7 -3 9 26 7 23 -1 40 -5
37 -9z m557 -70 c0 -4 -4 -8 -10 -8 -5 0 -10 4 -10 9 0 5 -3 18 -6 28 -5 16
-4 16 10 -1 9 -11 16 -23 16 -28z m6420 32 c0 -5 -4 -10 -10 -10 -5 0 -10 5
-10 10 0 6 5 10 10 10 6 0 10 -4 10 -10z m-7752 -40 c34 -23 64 -50 67 -62 4
-11 29 -42 57 -69 l50 -49 119 7 c80 4 119 3 119 -4 0 -6 14 -13 30 -15 17 -3
30 -1 30 4 0 4 5 8 11 8 14 0 79 -67 79 -81 0 -11 -85 -10 -120 1 -18 6 -20 8
-7 9 10 1 15 6 12 12 -5 7 -14 4 -27 -8 -17 -15 -38 -18 -142 -18 -206 0 -255
5 -272 29 -8 12 -10 22 -5 24 6 2 7 10 4 17 -4 11 -10 12 -23 5 -15 -8 -25 -3
-54 26 -20 20 -36 42 -36 50 0 12 -4 12 -20 4 -17 -9 -22 -7 -29 12 -6 17 -5
24 7 26 8 2 18 -1 22 -8 6 -9 9 -9 12 1 5 15 -12 71 -25 80 -4 3 -5 13 -1 22
12 32 75 21 142 -23z m6672 -45 c36 -9 79 -22 97 -30 49 -23 91 -29 108 -15
12 10 15 10 15 -1 0 -8 -6 -21 -13 -29 -14 -17 -19 -17 -314 3 -18 1 -32 5
-30 8 1 4 -9 16 -23 28 -14 11 -20 21 -15 21 6 1 22 3 37 4 15 1 33 7 40 14
15 15 19 15 98 -3z m1036 0 c-7 -18 5 -20 22 -3 9 9 12 9 12 0 0 -6 -9 -16
-19 -21 -15 -8 -20 -7 -25 5 -3 9 -4 20 0 25 9 15 17 10 10 -6z m-8189 -83
c-46 -5 -54 2 -49 44 l5 38 36 -40 36 -39 -28 -3z m5223 58 c0 -5 -7 -10 -15
-10 -8 0 -15 5 -15 10 0 6 7 10 15 10 8 0 15 -4 15 -10z m-4961 -53 c0 -21 -1
-21 -9 -2 -12 28 -12 37 0 30 6 -3 10 -16 9 -28z m6521 -14 c0 -13 -4 -23 -8
-23 -5 0 -13 10 -19 23 -9 19 -8 23 8 23 13 0 19 -7 19 -23z m1160 17 c0 -5
-4 -10 -10 -10 -5 0 -10 5 -10 10 0 6 5 10 10 10 6 0 10 -4 10 -10z m-7617
-25 c-7 -21 -13 -19 -13 6 0 11 4 18 10 14 5 -3 7 -12 3 -20z m7797 9 c0 -8
-4 -12 -10 -9 -5 3 -10 10 -10 16 0 5 5 9 10 9 6 0 10 -7 10 -16z m-6711 -18
c36 -8 38 -16 5 -17 -32 -1 -37 -2 -104 -18 -25 -7 -58 -14 -75 -17 -16 -3
-56 -10 -89 -15 -54 -10 -60 -9 -83 13 l-25 23 24 6 c13 4 55 7 94 8 56 1 73
5 78 17 5 13 18 15 79 11 39 -3 83 -8 96 -11z m3731 -26 c0 -5 -5 -10 -11 -10
-5 0 -7 5 -4 10 3 6 8 10 11 10 2 0 4 -4 4 -10z m-3649 -174 l16 -34 -29 21
c-29 22 -37 47 -15 47 7 0 20 -15 28 -34z m2764 24 c4 -6 -7 -10 -24 -10 -17
0 -31 5 -31 10 0 6 11 10 24 10 14 0 28 -4 31 -10z m200 -40 c-3 -5 -11 -10
-16 -10 -6 0 -7 5 -4 10 3 6 11 10 16 10 6 0 7 -4 4 -10z m-318 -46 c-3 -3
-12 -4 -19 -1 -8 3 -5 6 6 6 11 1 17 -2 13 -5z m2673 -586 c0 -62 -5 -60 -13
5 -4 28 -3 47 3 47 6 0 10 -23 10 -52z"/>
<path d="M9447 10158 c-8 -5 -7 -8 4 -8 9 0 19 -9 22 -20 8 -31 26 -24 24 9
-2 30 -22 37 -50 19z"/>
<path d="M9410 10130 c0 -6 7 -10 15 -10 8 0 15 2 15 4 0 2 -7 6 -15 10 -8 3
-15 1 -15 -4z"/>
<path d="M9170 10020 c0 -11 2 -20 4 -20 2 0 6 9 9 20 3 11 1 20 -4 20 -5 0
-9 -9 -9 -20z"/>
<path d="M10417 9504 c-4 -4 -7 -14 -7 -23 0 -11 3 -12 11 -4 6 6 10 16 7 23
-2 6 -7 8 -11 4z"/>
<path d="M10373 9469 c-25 -9 -30 -19 -10 -19 15 0 43 17 37 23 -3 3 -15 1
-27 -4z"/>
<path d="M9058 9303 c7 -3 16 -2 19 1 4 3 -2 6 -13 5 -11 0 -14 -3 -6 -6z"/>
<path d="M9058 9013 c7 -3 16 -2 19 1 4 3 -2 6 -13 5 -11 0 -14 -3 -6 -6z"/>
<path d="M9810 10021 c0 -5 7 -11 15 -15 9 -3 15 0 15 9 0 8 -7 15 -15 15 -8
0 -15 -4 -15 -9z"/>
<path d="M10072 10019 c2 -7 10 -15 17 -17 8 -3 12 1 9 9 -2 7 -10 15 -17 17
-8 3 -12 -1 -9 -9z"/>
<path d="M9420 9985 c0 -9 5 -15 11 -13 6 2 11 8 11 13 0 5 -5 11 -11 13 -6 2
-11 -4 -11 -13z"/>
<path d="M9352 9523 c-20 -4 -21 -7 -11 -21 11 -14 11 -15 -1 -4 -24 21 -42
14 -38 -15 2 -21 8 -27 22 -25 14 3 17 -1 12 -13 -4 -11 -2 -15 6 -12 7 2 12
10 10 17 -1 7 2 18 8 24 5 7 6 16 2 20 -4 4 -1 6 7 4 7 -1 15 5 16 15 2 9 0
16 -3 16 -4 -1 -17 -4 -30 -6z"/>
<path d="M9254 9409 c-1 -26 0 -27 12 -11 17 22 17 29 2 35 -9 3 -13 -6 -14
-24z"/>
<path d="M9504 9353 c-3 -10 -10 -26 -15 -36 -12 -21 -2 -38 10 -19 4 7 18 11
31 10 12 -2 25 3 27 10 3 6 -2 12 -11 12 -9 0 -16 6 -16 14 0 23 -19 29 -26 9z"/>
<path d="M9460 9334 c0 -9 5 -14 12 -12 18 6 21 28 4 28 -9 0 -16 -7 -16 -16z"/>
<path d="M8690 8150 c0 -6 5 -8 11 -4 6 3 16 0 21 -7 8 -12 9 -11 5 1 -4 18
-37 27 -37 10z"/>
<path d="M8606 7793 c-11 -3 -26 -11 -33 -18 -11 -12 -10 -14 7 -12 12 1 28 9
37 19 9 10 14 17 12 17 -2 -1 -13 -4 -23 -6z"/>
<path d="M8530 7746 c0 -13 -5 -26 -12 -28 -8 -3 -6 -11 7 -25 l20 -21 0 49
c0 27 -3 49 -7 49 -5 0 -8 -11 -8 -24z"/>
<path d="M8570 7740 c0 -5 4 -10 9 -10 6 0 13 5 16 10 3 6 -1 10 -9 10 -9 0
-16 -4 -16 -10z"/>
<path d="M7962 7058 c-15 -15 -16 -31 -1 -22 6 3 15 0 20 -7 6 -11 9 -8 9 8 0
27 -13 36 -28 21z"/>
<path d="M7830 6960 c-14 -11 -23 -20 -20 -21 44 -9 60 -8 60 3 -1 31 -15 37
-40 18z"/>
<path d="M7060 6660 c-13 -9 -13 -10 0 -10 8 0 22 5 30 10 13 9 13 10 0 10 -8
0 -22 -5 -30 -10z"/>
<path d="M11336 7004 c-9 -24 -2 -26 12 -4 7 11 8 20 3 20 -5 0 -12 -7 -15
-16z"/>
<path d="M11520 6920 c0 -5 5 -10 11 -10 5 0 7 5 4 10 -3 6 -8 10 -11 10 -2 0
-4 -4 -4 -10z"/>
<path d="M11670 6910 c0 -5 5 -10 10 -10 6 0 10 5 10 10 0 6 -4 10 -10 10 -5
0 -10 -4 -10 -10z"/>
<path d="M11486 6851 c-4 -7 -5 -15 -2 -18 9 -9 19 4 14 18 -4 11 -6 11 -12 0z"/>
<path d="M11760 6830 c0 -5 5 -10 10 -10 6 0 10 5 10 10 0 6 -4 10 -10 10 -5
0 -10 -4 -10 -10z"/>
<path d="M11700 6810 c0 -5 5 -10 10 -10 6 0 10 5 10 10 0 6 -4 10 -10 10 -5
0 -10 -4 -10 -10z"/>
<path d="M11780 6798 c0 -11 12 -10 30 2 12 7 10 9 -8 7 -12 0 -22 -5 -22 -9z"/>
<path d="M12296 6451 c-4 -7 -5 -15 -2 -18 9 -9 19 4 14 18 -4 11 -6 11 -12 0z"/>
<path d="M12240 6430 c0 -5 5 -10 10 -10 6 0 10 5 10 10 0 6 -4 10 -10 10 -5
0 -10 -4 -10 -10z"/>
<path d="M12690 6293 c1 -12 29 -47 34 -42 7 7 -13 49 -24 49 -5 0 -10 -3 -10
-7z"/>
<path d="M12670 6255 c0 -8 5 -15 10 -15 6 0 10 -7 10 -15 0 -8 5 -15 10 -15
13 0 13 16 0 41 -13 23 -30 25 -30 4z"/>
<path d="M12725 6200 c3 -5 8 -10 11 -10 2 0 4 5 4 10 0 6 -5 10 -11 10 -5 0
-7 -4 -4 -10z"/>
<path d="M12743 5905 c-15 -16 -16 -25 -5 -25 4 0 13 9 20 20 14 23 3 26 -15
5z"/>
<path d="M12770 5870 c0 -5 5 -10 10 -10 6 0 10 5 10 10 0 6 -4 10 -10 10 -5
0 -10 -4 -10 -10z"/>
<path d="M13060 5039 c0 -5 5 -7 10 -4 6 3 10 8 10 11 0 2 -4 4 -10 4 -5 0
-10 -5 -10 -11z"/>
<path d="M13037 5033 c-11 -11 -8 -20 7 -20 8 0 12 6 9 14 -6 15 -7 15 -16 6z"/>
<path d="M12945 4982 c-11 -12 -4 -18 23 -17 36 0 45 20 10 21 -15 1 -30 -1
-33 -4z"/>
<path d="M12981 4934 c0 -11 3 -14 6 -6 3 7 2 16 -1 19 -3 4 -6 -2 -5 -13z"/>
<path d="M9960 4949 c0 -5 5 -7 10 -4 6 3 10 8 10 11 0 2 -4 4 -10 4 -5 0 -10
-5 -10 -11z"/>
<path d="M9031 4934 c0 -11 3 -14 6 -6 3 7 2 16 -1 19 -3 4 -6 -2 -5 -13z"/>
<path d="M10007 4943 c-4 -3 -7 -11 -7 -17 0 -6 5 -5 12 2 6 6 9 14 7 17 -3 3
-9 2 -12 -2z"/>
<path d="M9316 4911 c-4 -7 -5 -15 -2 -18 9 -9 19 4 14 18 -4 11 -6 11 -12 0z"/>
<path d="M10348 4804 c-4 -5 0 -18 8 -29 15 -20 17 -12 5 19 -4 11 -10 15 -13
10z"/>
<path d="M8990 4789 c0 -5 5 -7 10 -4 6 3 10 8 10 11 0 2 -4 4 -10 4 -5 0 -10
-5 -10 -11z"/>
<path d="M9645 4780 c3 -5 8 -10 11 -10 2 0 4 5 4 10 0 6 -5 10 -11 10 -5 0
-7 -4 -4 -10z"/>
<path d="M10437 4743 c-2 -4 -1 -17 3 -28 7 -19 8 -19 15 -2 8 18 -9 46 -18
30z"/>
<path d="M8950 4730 c0 -5 5 -10 11 -10 5 0 7 5 4 10 -3 6 -8 10 -11 10 -2 0
-4 -4 -4 -10z"/>
<path d="M8910 4690 c0 -5 7 -7 15 -4 8 4 15 8 15 10 0 2 -7 4 -15 4 -8 0 -15
-4 -15 -10z"/>
<path d="M8838 4658 c9 -9 15 -9 24 0 9 9 7 12 -12 12 -19 0 -21 -3 -12 -12z"/>
<path d="M9554 4590 c-65 -7 -133 -23 -158 -38 -5 -3 -1 -9 10 -13 17 -7 17
-8 -3 -8 -13 -1 -23 4 -23 9 0 6 -5 10 -12 10 -6 0 -8 -3 -5 -7 9 -9 -12 -33
-29 -33 -8 0 -14 7 -14 15 0 22 -38 11 -145 -42 -189 -94 -341 -247 -434 -438
-55 -111 -94 -229 -86 -255 3 -10 -1 -38 -10 -63 -17 -51 -20 -222 -4 -297 17
-83 20 -91 27 -86 5 3 14 -11 21 -30 7 -19 16 -32 21 -29 15 9 19 -9 4 -22
-10 -10 -15 -10 -23 5 -14 23 -14 12 1 -28 10 -30 12 -32 20 -14 6 15 7 12 4
-10 -9 -66 100 -242 224 -364 149 -146 293 -221 532 -276 78 -18 265 -21 354
-5 337 59 622 298 734 614 69 195 89 360 66 525 -38 261 -118 433 -275 591
-145 145 -323 241 -506 273 -110 20 -207 25 -291 16z m226 -47 c13 -14 13 -14
-7 -4 -28 14 -36 14 -27 -1 5 -8 2 -9 -12 -4 -10 5 -27 11 -36 13 -10 3 -15
10 -12 15 9 14 76 0 94 -19z m117 -19 c-3 -3 -12 -4 -19 -1 -8 3 -5 6 6 6 11
1 17 -2 13 -5z m28 -14 c3 -5 -1 -10 -10 -10 -9 0 -13 5 -10 10 3 6 8 10 10
10 2 0 7 -4 10 -10z m80 -20 c10 -11 13 -20 7 -20 -6 0 -15 6 -19 14 -4 8 -19
16 -33 19 l-25 4 26 2 c15 0 34 -8 44 -19z m-700 -9 c-3 -5 -1 -12 4 -15 5 -4
4 -16 -2 -31 -8 -17 -20 -25 -38 -25 -14 0 -36 -9 -49 -20 -13 -11 -33 -20
-45 -20 -11 0 -27 -6 -34 -12 -11 -11 -13 -10 -9 1 2 8 11 18 19 22 8 4 27 13
42 20 16 7 23 15 17 17 -7 3 -15 -1 -19 -7 -4 -6 -33 -12 -64 -15 -63 -4 -67
6 -9 25 20 6 43 16 50 22 8 6 31 11 52 12 21 1 45 9 54 18 18 18 41 24 31 8z
m85 -13 c0 -9 3 -9 12 0 17 17 48 15 48 -3 0 -8 -9 -15 -20 -15 -11 0 -23 -6
-26 -14 -9 -24 -45 -14 -60 16 -14 28 -14 28 16 28 17 0 30 -5 30 -12z m340
-48 c0 -5 10 -10 23 -11 18 -1 17 -2 -8 -10 -16 -5 -36 -7 -42 -4 -21 7 -15
35 7 35 11 0 20 -4 20 -10z m-630 -96 c0 -11 5 -14 16 -10 22 8 72 17 57 10
-23 -10 -14 -26 12 -22 14 3 25 1 25 -3 0 -5 -3 -10 -7 -10 -5 -1 -20 -3 -34
-4 -15 -2 -51 -15 -80 -30 -39 -19 -47 -21 -30 -7 18 14 23 26 19 46 -3 14 -1
26 4 26 5 0 6 5 3 10 -3 6 -1 10 4 10 6 0 11 -7 11 -16z m-134 -51 c-10 -10
-19 5 -10 18 6 11 8 11 12 0 2 -7 1 -15 -2 -18z m1319 -23 c14 -16 16 -23 6
-33 -21 -21 -58 16 -44 46 7 12 19 8 38 -13z m-1285 -4 c0 -3 -4 -8 -10 -11
-5 -3 -10 -1 -10 4 0 6 5 11 10 11 6 0 10 -2 10 -4z m-118 -48 c14 14 38 16
38 2 0 -10 -77 -63 -97 -66 -7 -1 -13 2 -13 7 0 5 3 9 8 9 4 0 13 14 21 31 10
23 16 27 22 18 6 -11 11 -11 21 -1z m1273 -49 c4 -5 18 -14 30 -19 27 -10 29
-41 5 -77 -17 -26 -30 -30 -30 -8 0 8 -6 15 -14 15 -8 0 -17 7 -20 16 -3 8 -2
13 2 10 4 -2 14 0 22 5 13 8 12 12 -6 27 -11 10 -19 23 -16 30 5 15 19 16 27
1z m-490 -29 c-3 -5 -11 -10 -16 -10 -6 0 -7 5 -4 10 3 6 11 10 16 10 6 0 7
-4 4 -10z m420 -10 c18 -7 18 -9 3 -15 -9 -3 -26 -1 -38 5 -11 6 -30 8 -42 4
-14 -4 -18 -2 -14 5 8 13 62 13 91 1z m-632 -20 c-3 -12 0 -20 7 -20 7 0 10
-7 6 -16 -3 -8 -1 -25 5 -36 9 -18 8 -24 -10 -37 -17 -13 -19 -19 -9 -29 8 -8
8 -12 1 -12 -15 0 -23 24 -23 66 0 24 -4 34 -16 34 -14 0 -14 2 -1 15 9 8 13
24 10 35 -4 15 0 20 15 20 15 0 19 -5 15 -20z m-353 -20 c0 -12 -30 -33 -36
-27 -11 10 3 34 20 34 9 0 16 -4 16 -7z m190 -9 c0 -11 -4 -23 -10 -26 -5 -3
-10 1 -10 10 0 11 -8 15 -26 13 -15 -2 -29 3 -31 10 -3 8 8 12 36 12 34 0 41
-3 41 -19z m290 -23 c0 -5 -4 -8 -10 -8 -5 0 -10 10 -10 23 0 18 2 19 10 7 5
-8 10 -18 10 -22z m207 0 c29 -27 30 -48 2 -48 -14 0 -19 5 -16 14 3 7 -1 23
-9 35 -20 27 -7 27 23 -1z m-582 2 c3 -5 1 -10 -4 -10 -6 0 -11 5 -11 10 0 6
2 10 4 10 3 0 8 -4 11 -10z m405 -16 c0 -8 -5 -12 -10 -9 -6 4 -8 11 -5 16 9
14 15 11 15 -7z m335 6 c3 -5 -1 -10 -10 -10 -9 0 -13 5 -10 10 3 6 8 10 10
10 2 0 7 -4 10 -10z m-638 -22 c-3 -8 -6 -5 -6 6 -1 11 2 17 5 13 3 -3 4 -12
1 -19z m591 -7 c3 -8 -1 -12 -9 -9 -7 2 -15 10 -17 17 -3 8 1 12 9 9 7 -2 15
-10 17 -17z m-849 -17 c13 -17 26 -24 37 -20 8 3 22 -1 30 -9 17 -17 34 -20
34 -6 0 5 7 11 15 15 13 5 13 2 -1 -19 -12 -19 -22 -23 -47 -20 -18 2 -33 9
-35 15 -2 5 -10 10 -18 10 -8 0 -14 6 -14 13 -1 7 -6 4 -15 -7 -17 -22 -35
-13 -35 18 0 43 20 47 49 10z m1285 11 c-4 -8 -10 -12 -15 -9 -11 6 -2 24 11
24 5 0 7 -7 4 -15z m-704 -20 c0 -12 -29 -3 -34 10 -4 13 -2 14 14 5 11 -6 20
-13 20 -15z m-317 -10 c-4 -15 -36 -12 -41 3 -3 9 3 13 19 10 13 -1 23 -7 22
-13z m273 -8 c3 -3 3 -11 -1 -17 -5 -8 -13 -7 -29 3 -12 8 -31 17 -41 20 -11
3 -1 4 23 3 23 -2 45 -6 48 -9z m-798 -17 c-7 -10 -14 -18 -15 -16 -6 6 9 36
18 36 5 0 4 -9 -3 -20z m902 -27 c0 -2 -9 -3 -20 -3 -13 0 -20 7 -20 20 0 19
1 19 20 3 11 -10 20 -19 20 -20z m-155 -31 c-1 -45 -27 -101 -47 -102 -5 0 -8
-7 -8 -15 0 -15 -17 -20 -54 -16 -10 0 -25 -4 -32 -10 -9 -7 -14 -8 -14 -1 0
5 7 12 15 16 8 3 15 10 15 16 0 6 -4 9 -9 5 -22 -13 -32 34 -18 77 18 53 43
66 33 17 -6 -31 -5 -32 8 -14 20 28 28 15 11 -18 -9 -17 -10 -29 -4 -33 6 -3
13 3 16 14 3 14 16 22 45 26 30 5 37 10 30 19 -13 15 -10 67 4 67 6 0 10 -20
9 -48z m222 33 c0 -8 -4 -15 -9 -15 -10 0 -11 14 -1 23 9 10 10 9 10 -8z m692
-3 c11 -21 -6 -119 -19 -105 -7 7 -2 123 6 123 2 0 8 -8 13 -18z m-1689 4 c0
-3 -4 -8 -10 -11 -5 -3 -10 -1 -10 4 0 6 5 11 10 11 6 0 10 -2 10 -4z m820
-10 c0 -3 -4 -8 -10 -11 -5 -3 -10 -1 -10 4 0 6 5 11 10 11 6 0 10 -2 10 -4z
m273 -22 c3 -4 -1 -16 -9 -28 -8 -13 -11 -26 -7 -29 3 -4 1 -7 -5 -7 -19 0
-22 17 -6 30 8 7 13 19 10 27 -5 13 6 18 17 7z m-648 -54 c-3 -5 -10 -10 -16
-10 -5 0 -9 5 -9 10 0 6 7 10 16 10 8 0 12 -4 9 -10z m765 -32 c0 -13 -32 -6
-37 9 -3 7 3 9 16 6 12 -3 21 -10 21 -15z m-780 -14 c0 -7 -4 -16 -10 -19 -5
-3 -10 1 -10 9 0 9 -4 16 -10 16 -5 0 -10 4 -10 9 0 5 9 7 20 4 11 -3 20 -11
20 -19z m-168 -6 c-7 -7 -12 -8 -12 -2 0 14 12 26 19 19 2 -3 -1 -11 -7 -17z
m-222 1 c0 -5 -5 -7 -11 -3 -6 3 -15 1 -19 -6 -4 -7 -13 -9 -20 -5 -9 6 -9 9
1 16 19 12 49 11 49 -2z m64 -90 c-3 -5 -11 -9 -18 -9 -8 0 -14 -6 -13 -12 1
-29 -4 -48 -11 -48 -5 0 -9 6 -9 13 0 6 -3 29 -7 49 -5 30 -4 37 11 40 20 5
55 -20 47 -33z m226 -63 c0 -3 -4 -8 -10 -11 -5 -3 -10 -1 -10 4 0 6 5 11 10
11 6 0 10 -2 10 -4z m86 -10 c21 -16 22 -14 -31 -31 -8 -2 -22 -2 -30 1 -12 5
-13 10 -4 20 6 8 15 11 20 8 5 -3 9 0 9 5 0 15 13 14 36 -3z m-206 -7 c0 -6
-7 -9 -15 -5 -8 3 -14 0 -12 -7 1 -6 -8 -13 -21 -15 -21 -3 -22 -1 -12 17 11
22 60 30 60 10z m472 -18 c-5 -3 -11 -12 -13 -19 -3 -10 -9 -9 -22 6 -16 18
-16 19 13 19 17 0 27 -3 22 -6z m716 -9 c6 -18 -15 -14 -22 4 -4 10 -1 14 6
12 6 -2 14 -10 16 -16z m-880 -38 c1 -1 0 -9 -4 -18 -3 -9 -10 -13 -15 -10 -5
3 -7 9 -4 14 3 4 -2 10 -10 14 -8 3 -15 10 -15 16 0 6 8 6 23 -2 12 -7 23 -13
25 -14z m153 -66 c11 2 16 -3 15 -15 -1 -14 7 -19 34 -21 19 -2 39 -8 45 -13
12 -12 72 -11 96 2 15 7 24 7 34 -1 8 -7 28 -9 50 -4 28 5 36 3 35 -7 -4 -29
1 -39 20 -39 25 0 90 -31 90 -43 0 -5 -8 -7 -18 -5 -14 4 -22 -3 -31 -28 -7
-19 -18 -34 -25 -34 -7 0 -12 -10 -11 -22 1 -16 8 -22 20 -21 22 2 50 -23 35
-32 -5 -3 -10 -1 -10 4 0 6 -9 11 -20 11 -11 0 -29 6 -41 13 -17 10 -22 9 -32
-3 -26 -32 -85 -60 -142 -69 -51 -8 -52 -22 -2 -27 49 -4 77 -13 77 -24 0 -5
-20 -6 -44 -4 -33 4 -45 1 -49 -10 -9 -22 -25 -20 -23 2 0 9 -6 17 -14 17 -9
0 -15 -9 -15 -22 0 -13 4 -23 9 -22 19 2 25 -26 10 -49 -24 -37 -10 -36 22 0
26 30 37 34 69 30 6 -1 12 -14 13 -28 2 -22 0 -24 -13 -14 -11 10 -18 9 -30
-4 -9 -9 -23 -16 -32 -16 -9 0 -13 -6 -10 -14 3 -8 -1 -22 -8 -33 -22 -29 -18
-43 14 -43 18 0 34 8 44 23 14 19 18 20 27 7 8 -12 10 -10 8 10 -2 19 2 25 15
24 9 -1 17 2 17 8 0 5 5 6 11 3 6 -4 22 3 35 16 l25 24 -11 -29 c-9 -24 -8
-31 7 -41 21 -16 42 -6 114 55 40 33 59 38 59 15 0 -8 -4 -15 -9 -15 -14 0
-56 -42 -64 -62 -3 -9 -16 -18 -29 -20 -13 -2 -22 -7 -21 -13 5 -19 46 -12 68
11 11 12 34 25 51 29 l29 6 -32 -17 c-35 -17 -43 -34 -18 -34 8 0 15 -9 15
-20 0 -11 6 -20 14 -20 8 0 22 -10 30 -21 18 -26 53 -20 92 16 19 18 35 24 58
21 17 -2 39 -4 49 -5 28 -2 19 -21 -13 -27 -32 -7 -41 -24 -12 -25 10 0 12 -3
5 -6 -7 -2 -13 -12 -13 -22 0 -18 -32 -51 -68 -70 -25 -13 -45 -14 -37 -2 8
15 -15 25 -28 12 -8 -8 -8 -11 1 -11 7 0 12 -6 12 -14 0 -16 -34 -31 -49 -21
-5 3 -16 -4 -25 -16 -8 -12 -19 -18 -25 -15 -6 4 -20 1 -32 -6 -17 -10 -23
-10 -26 0 -6 16 -23 15 -23 -2 0 -9 -8 -12 -25 -8 -14 2 -31 -1 -39 -7 -7 -6
-20 -9 -29 -5 -8 3 -18 1 -21 -5 -5 -7 -15 -7 -33 0 -18 6 -37 6 -60 -2 -18
-6 -39 -9 -46 -6 -6 2 -20 0 -29 -5 -11 -5 -18 -5 -18 0 0 5 -12 7 -27 5 -21
-3 -24 -2 -14 5 10 7 2 10 -30 8 -45 -3 -53 -1 -126 29 -33 14 -42 23 -40 39
1 13 -3 20 -11 18 -16 -3 -65 22 -82 43 -13 15 -15 15 -31 -7 l-18 -23 -21 23
c-14 15 -19 29 -15 42 4 11 9 18 13 16 4 -2 7 10 7 28 0 33 -27 84 -52 99 -17
11 -17 27 2 27 8 0 22 -12 32 -27 27 -42 44 -58 85 -76 36 -17 37 -17 72 7 22
15 44 22 57 19 13 -4 27 2 41 16 11 12 18 23 17 24 -32 20 -79 34 -84 26 -10
-15 -57 18 -82 58 -26 39 -27 46 -12 71 15 24 -7 73 -39 87 -12 5 -22 15 -22
21 0 6 -13 17 -30 23 -16 6 -43 16 -60 22 -47 18 -25 29 29 14 53 -14 137 -70
146 -97 4 -10 10 -18 15 -18 6 0 5 11 0 26 -7 18 -7 25 1 22 14 -5 51 -99 45
-115 -6 -16 15 -83 26 -83 5 0 6 10 3 21 -5 15 -3 20 6 17 7 -2 13 -12 15 -22
3 -21 0 -18 46 -39 44 -21 51 -21 88 -2 26 13 28 18 20 40 -8 20 -6 27 5 31 8
4 15 11 15 16 0 6 -7 8 -15 5 -7 -3 -24 3 -37 13 -13 11 -17 19 -10 20 6 0 12
7 12 17 0 14 -2 15 -17 1 -35 -30 -46 -33 -33 -8 17 31 -3 49 -23 20 -15 -22
-35 -11 -21 12 4 7 3 8 -4 4 -8 -4 -11 3 -9 24 2 33 7 36 25 18 9 -9 12 -8 12
4 0 9 6 18 14 21 19 8 38 -16 30 -37 -7 -18 -4 -19 20 -10 22 8 20 27 -4 49
-11 10 -17 22 -14 27 3 5 -4 12 -15 15 -20 5 -26 26 -8 24 4 -1 21 -1 38 -1
16 0 28 -4 25 -9 -3 -5 11 -11 31 -14 44 -8 83 13 83 44 0 16 4 19 23 14 21
-6 21 -5 2 7 -11 7 -22 13 -25 13 -16 2 -80 39 -80 46 0 5 -7 9 -15 9 -8 0
-21 15 -29 34 -9 22 -23 36 -42 40 -15 4 -37 14 -48 22 -20 14 -20 14 4 14
l23 0 -24 26 -24 27 40 -25 c22 -13 47 -22 56 -20z m829 17 c13 -14 21 -25 18
-25 -2 0 -15 11 -28 25 -13 14 -21 25 -18 25 2 0 15 -11 28 -25z m54 -75 l17
-35 -21 24 c-11 13 -20 30 -20 39 0 19 3 15 24 -28z m-1225 10 c13 -8 11 -9
-11 -10 -16 0 -28 -4 -28 -10 0 -5 9 -10 19 -10 11 0 23 -4 26 -10 3 -6 -5
-10 -19 -10 -13 0 -26 -5 -28 -11 -5 -16 -87 42 -88 62 0 14 9 16 56 13 31 -3
64 -9 73 -14z m301 -13 c35 -16 49 -26 41 -32 -7 -4 -18 -2 -24 4 -6 6 -19 11
-30 11 -26 0 -59 19 -52 31 8 12 4 13 65 -14z m-599 -64 c1 -7 2 -17 3 -23 0
-5 10 -15 20 -23 14 -11 18 -21 13 -44 -9 -46 10 -103 34 -103 16 0 19 -4 14
-21 -4 -12 0 -37 10 -60 11 -23 15 -45 10 -56 -8 -17 -11 -25 -14 -38 0 -3
-10 -1 -22 5 -30 16 -59 70 -53 97 8 29 -25 113 -43 113 -11 0 -13 7 -9 24 3
14 1 28 -5 32 -9 5 -7 11 4 19 21 15 19 95 -2 95 -11 0 -11 3 0 16 12 14 14
14 26 -2 7 -10 14 -24 14 -31z m1569 -13 c7 -16 10 -39 7 -49 -3 -11 0 -22 7
-25 8 -3 8 -5 0 -5 -19 -1 -31 21 -37 67 -6 49 5 55 23 12z m-200 -15 c0 -5
-5 -3 -10 5 -5 8 -10 20 -10 25 0 6 5 3 10 -5 5 -8 10 -19 10 -25z m-30 1 c0
-3 -4 -8 -10 -11 -5 -3 -10 -1 -10 4 0 6 5 11 10 11 6 0 10 -2 10 -4z m-1146
-27 c-9 -15 -34 -10 -28 5 3 8 12 12 20 9 8 -3 11 -9 8 -14z m1001 -9 c3 -5 1
-10 -4 -10 -6 0 -11 5 -11 10 0 6 2 10 4 10 3 0 8 -4 11 -10z m154 -51 c-17
-33 2 -42 50 -23 31 12 45 14 53 6 17 -17 -9 -42 -42 -42 -18 0 -36 -9 -47
-24 l-19 -24 -32 33 c-32 32 -45 79 -19 69 8 -3 20 2 27 11 7 8 19 15 27 15
11 0 11 -4 2 -21z m234 -5 c3 -4 -1 -13 -10 -22 -13 -14 -14 -17 0 -27 13 -9
13 -14 2 -36 -8 -14 -26 -31 -41 -38 -25 -11 -29 -10 -51 16 -16 20 -21 36
-17 53 8 34 14 38 25 17 13 -23 49 -22 49 1 0 28 28 51 43 36z m-1404 -7 c-2
-1 -13 -9 -24 -17 -19 -14 -19 -14 -6 3 7 9 18 17 24 17 6 0 8 -1 6 -3z m-10
-177 c9 -50 19 -75 35 -87 31 -25 44 -47 20 -35 -11 5 -31 14 -45 20 -19 7
-30 24 -41 56 -9 27 -12 49 -6 52 5 3 6 19 3 35 -5 21 -3 29 8 29 9 0 18 -22
26 -70z m390 -3 c6 2 19 -15 30 -37 l19 -40 -24 0 c-14 0 -28 9 -35 21 -7 15
-8 19 0 15 7 -5 9 -1 5 8 -3 9 -14 16 -25 16 -15 0 -17 7 -14 38 5 58 6 60 20
17 7 -22 18 -39 24 -38z m365 34 c3 -4 -6 -13 -20 -20 -32 -14 -34 -14 -34 3
0 21 43 35 54 17z m251 -21 c3 -5 1 -10 -4 -10 -6 0 -11 5 -11 10 0 6 2 10 4
10 3 0 8 -4 11 -10z m-900 -30 c16 -16 35 -30 42 -30 20 0 38 -46 27 -69 -9
-19 -10 -19 -29 -3 -39 34 -95 102 -95 117 0 24 24 17 55 -15z m390 -48 c-3
-3 -11 0 -18 7 -9 10 -8 11 6 5 10 -3 15 -9 12 -12z m305 -16 c0 -2 -7 -7 -16
-10 -8 -3 -12 -2 -9 4 6 10 25 14 25 6z m259 -71 c0 -5 -4 -19 -9 -30 -8 -18
-9 -17 -9 8 -1 15 -5 27 -11 27 -5 0 -10 7 -10 15 0 13 3 13 20 3 11 -7 20
-17 19 -23z m48 9 c-3 -3 -12 -4 -19 -1 -8 3 -5 6 6 6 11 1 17 -2 13 -5z
m-1083 -41 c4 -4 23 -8 42 -9 32 -1 71 -31 57 -44 -3 -3 -8 1 -10 8 -3 6 -9
12 -15 12 -6 0 -8 -7 -4 -15 3 -8 1 -15 -4 -15 -5 0 -12 9 -15 20 -4 12 -15
20 -29 20 -13 0 -29 7 -36 15 -12 15 0 22 14 8z m996 -8 c0 -8 -4 -15 -9 -15
-13 0 -22 16 -14 24 11 11 23 6 23 -9z"/>
<path d="M9422 2765 c0 -16 2 -22 5 -12 2 9 2 23 0 30 -3 6 -5 -1 -5 -18z"/>
<path d="M10015 2759 c-4 -6 -5 -13 -2 -16 7 -7 27 6 27 18 0 12 -17 12 -25
-2z"/>
<path d="M8638 4533 c7 -3 16 -2 19 1 4 3 -2 6 -13 5 -11 0 -14 -3 -6 -6z"/>
<path d="M11000 3901 c0 -5 5 -13 10 -16 6 -3 10 -2 10 4 0 5 -4 13 -10 16 -5
3 -10 2 -10 -4z"/>
<path d="M10995 3860 c-35 -9 -33 -11 17 -13 28 -2 34 1 26 11 -6 6 -11 11
-12 11 0 -1 -14 -5 -31 -9z"/>
<path d="M8298 3709 c-10 -5 -18 -14 -18 -19 0 -17 15 -11 28 10 14 23 13 23
-10 9z"/>
<path d="M8325 3600 c3 -5 8 -10 11 -10 2 0 4 5 4 10 0 6 -5 10 -11 10 -5 0
-7 -4 -4 -10z"/>
<path d="M8285 3520 c3 -5 8 -10 11 -10 2 0 4 5 4 10 0 6 -5 10 -11 10 -5 0
-7 -4 -4 -10z"/>
<path d="M11058 3379 c-10 -10 -16 -19 -14 -19 2 0 12 -3 22 -7 11 -4 15 -3
10 5 -3 6 -2 13 4 17 12 7 14 25 3 24 -5 0 -16 -9 -25 -20z"/>
<path d="M11128 3393 c7 -3 16 -2 19 1 4 3 -2 6 -13 5 -11 0 -14 -3 -6 -6z"/>
<path d="M11140 3355 c0 -14 21 -45 30 -45 18 0 10 29 -10 40 -11 6 -20 8 -20
5z"/>
<path d="M8312 3338 c5 -15 28 -23 28 -10 0 5 -7 13 -16 16 -10 4 -14 1 -12
-6z"/>
<path d="M11043 3233 c-7 -2 -13 -12 -13 -21 0 -13 2 -14 8 -4 5 7 16 10 25 6
12 -4 17 -1 17 10 0 16 -13 19 -37 9z"/>
<path d="M11004 3170 c0 -11 4 -20 8 -20 4 0 8 9 8 20 0 11 -4 20 -8 20 -4 0
-8 -9 -8 -20z"/>
<path d="M11022 3131 c-11 -7 -11 -9 1 -14 16 -6 27 0 27 15 0 10 -11 10 -28
-1z"/>
<path d="M8430 2900 c0 -5 5 -10 10 -10 6 0 10 5 10 10 0 6 -4 10 -10 10 -5 0
-10 -4 -10 -10z"/>
<path d="M10620 2654 c0 -8 5 -12 10 -9 6 4 8 11 5 16 -9 14 -15 11 -15 -7z"/>
<path d="M10526 2643 c-12 -13 -5 -43 10 -43 10 0 14 6 11 14 -3 8 -1 16 6 19
6 2 5 6 -5 9 -9 4 -19 4 -22 1z"/>
<path d="M8736 2569 c-17 -17 -18 -19 -3 -19 28 0 32 2 30 11 -2 5 2 9 8 9 5
0 7 5 4 10 -9 14 -17 12 -39 -11z"/>
<path d="M8784 2559 c-7 -12 15 -31 28 -23 4 3 8 12 8 20 0 17 -26 19 -36 3z"/>
<path d="M10396 2513 c-6 -14 -5 -15 5 -6 7 7 10 15 7 18 -3 3 -9 -2 -12 -12z"/>
<path d="M9410 2346 c0 -8 4 -17 9 -20 5 -4 7 3 4 14 -6 23 -13 26 -13 6z"/>
<path d="M9740 2324 c0 -8 5 -12 10 -9 6 4 8 11 5 16 -9 14 -15 11 -15 -7z"/>
<path d="M9890 2331 c0 -10 19 -25 25 -20 1 2 -3 10 -11 17 -8 7 -14 8 -14 3z"/>
<path d="M9910 2290 c-8 -5 -11 -12 -7 -16 4 -4 13 -2 19 4 15 15 7 24 -12 12z"/>
<path d="M9398 2273 c6 -2 18 -2 25 0 6 3 1 5 -13 5 -14 0 -19 -2 -12 -5z"/>
<path d="M13095 4500 c3 -5 8 -10 11 -10 2 0 4 5 4 10 0 6 -5 10 -11 10 -5 0
-7 -4 -4 -10z"/>
<path d="M13097 4473 c-4 -3 -7 -11 -7 -17 0 -6 5 -5 12 2 6 6 9 14 7 17 -3 3
-9 2 -12 -2z"/>
<path d="M13170 4429 c0 -5 5 -7 10 -4 6 3 10 8 10 11 0 2 -4 4 -10 4 -5 0
-10 -5 -10 -11z"/>
<path d="M13592 3740 c-12 -19 -11 -20 8 -8 11 7 20 16 20 20 0 15 -15 8 -28
-12z"/>
<path d="M13568 3697 c7 -8 9 -17 5 -20 -3 -4 -1 -7 5 -7 18 0 14 27 -4 34
-13 5 -14 4 -6 -7z"/>
<path d="M13825 3340 c3 -5 8 -10 11 -10 2 0 4 5 4 10 0 6 -5 10 -11 10 -5 0
-7 -4 -4 -10z"/>
<path d="M5880 2695 c7 -9 15 -13 17 -11 7 7 -7 26 -19 26 -6 0 -6 -6 2 -15z"/>
<path d="M5323 3355 c0 -17 6 -18 25 -6 11 7 10 10 -3 15 -22 8 -22 8 -22 -9z"/>
<path d="M5140 3057 c-12 -21 -12 -21 6 -7 10 8 20 15 22 16 2 1 -1 4 -5 7 -5
3 -15 -4 -23 -16z"/>
<path d="M5133 2955 c0 -8 4 -12 9 -9 4 3 8 9 8 15 0 5 -4 9 -8 9 -5 0 -9 -7
-9 -15z"/>
<path d="M5110 2913 c8 -3 19 -11 23 -17 6 -7 7 -6 4 4 -2 8 -12 16 -23 17
-13 2 -15 1 -4 -4z"/>
<path d="M5170 2890 c0 -5 5 -10 11 -10 5 0 7 5 4 10 -3 6 -8 10 -11 10 -2 0
-4 -4 -4 -10z"/>
<path d="M5395 2681 c-3 -5 -1 -12 5 -16 5 -3 10 1 10 9 0 18 -6 21 -15 7z"/>
<path d="M5455 2550 c3 -5 8 -10 11 -10 2 0 4 5 4 10 0 6 -5 10 -11 10 -5 0
-7 -4 -4 -10z"/>
<path d="M13390 2769 c0 -5 5 -7 10 -4 6 3 10 8 10 11 0 2 -4 4 -10 4 -5 0
-10 -5 -10 -11z"/>
<path d="M13120 2499 c0 -5 5 -7 10 -4 6 3 10 8 10 11 0 2 -4 4 -10 4 -5 0
-10 -5 -10 -11z"/>
<path d="M13145 2490 c-3 -5 1 -10 9 -10 9 0 16 5 16 10 0 6 -4 10 -9 10 -6 0
-13 -4 -16 -10z"/>
<path d="M6283 2717 c1 -7 -6 -11 -15 -9 -10 2 -18 -2 -18 -8 0 -18 57 -12 62
8 4 12 -1 18 -13 19 -10 1 -18 -4 -16 -10z"/>
</g>
</svg>
